<svg xmlns="http://www.w3.org/2000/svg" width="626.23" height="354.469" viewBox="0 0 626.23 354.469">
    <defs>
        <style>
            .cls-1{fill:#e0f7ff}.cls-2{fill:#fff}.cls-3{fill:#b7d9ff;fill-rule:evenodd}.cls-4{fill:#545ece}.cls-5{fill:#625e7a}.cls-6{fill:#bdd3fa}.cls-7{fill:#ff7867}.cls-8{fill:#ffcbc5}.cls-9{fill:#6c60b7}.cls-10{fill:#ffb6ad}.cls-11{fill:#545ed3}.cls-12{fill:#97c2ff}.cls-13{fill:#edf1ff}.cls-14{fill:#74cf8f}.cls-15{fill:#aaa7fb}.cls-16{fill:#ffb7b0}.cls-17{fill:#ff988e}.cls-18{fill:#464646}
        </style>
    </defs>
    <g id="_01_banner" data-name="01 banner" transform="translate(-41.65 -101.967)">
        <g id="Group_70" data-name="Group 70" transform="translate(41.65 101.967)">
            <path id="Path_802" d="M565.333 230.195c-3.955-11.265-4.483-24.059.385-34.961 5.885-13.182 18.721-21.971 31.972-27.7s27.458-9.1 40.49-15.313 25.312-16.076 29.711-29.826c1.393-4.352 2.365-9.531 6.392-11.691a11.946 11.946 0 0 1 5.359-1.134c10.029-.279 19.863 3.76 27.8 9.9s14.124 14.271 19.323 22.85c17.833 29.428 24.625 65.963 15.776 99.215-2.093 7.867-5.126 15.686-10.479 21.819-8.961 10.27-22.881 14.307-34.835 20.855-13.3 7.284-24.435 17.912-37.11 26.232-5.634 3.7-12.006 7.043-18.73 6.579-11.464-.792-19.019-11.789-25.586-21.22-15.583-22.384-41.243-39.33-50.468-65.605z" class="cls-1" data-name="Path 802" transform="translate(-120.173 -103.112)"/>
            <path id="Path_803" d="M165.106 480.654c-13.023 1.4-26.134 2.8-39.191 1.776s-26.2-4.618-36.762-12.365a54.3 54.3 0 0 1-20.935-51.735c2.129-12.49 8.7-24.14 9.056-36.805.5-17.8-11.309-33.552-24.187-45.855-4.389-4.192-9.18-8.507-10.828-14.349-2.627-9.308 3.679-18.793 10.874-25.255a76.889 76.889 0 0 1 54.991-19.333c8.118.453 16.319 2.283 23.219 6.585 12.316 7.68 18.913 22.441 19.839 36.926.689 10.776-1.351 21.512-2.452 32.254s-1.189 21.98 3.137 31.874 14.039 18.089 24.83 17.7c19.765-.714 30.532-27.24 50.212-29.21 6.606-.661 13.151 1.672 19.1 4.613 7.922 3.914 15.234 8.947 22.389 14.13 6.061 4.391 12.313 9.258 15.077 16.215 2.085 5.245 1.927 11.131.931 16.686-3.292 18.36-15.577 34.541-31.556 44.164-13.408 8.076-30.711 12.881-46.412 11.159-14.266-1.566-26.938-.72-41.332.825z" class="cls-1" data-name="Path 803" transform="translate(-41.65 -128.312)"/>
            <path id="Path_804" d="M169.861 102.816a2.782 2.782 0 0 0-2.778 2.778V370.53a2.782 2.782 0 0 0 2.778 2.778H576.6a2.782 2.782 0 0 0 2.779-2.778V105.595a2.782 2.782 0 0 0-2.779-2.778zM576.6 374.158H169.861a3.631 3.631 0 0 1-3.628-3.628V105.595a3.631 3.631 0 0 1 3.628-3.628H576.6a3.631 3.631 0 0 1 3.628 3.628V370.53a3.631 3.631 0 0 1-3.628 3.628z" class="cls-2" data-name="Path 804" transform="translate(-60.442 -101.967)"/>
            <path id="Path_805" d="M566.674 383.809H159.936a3.2 3.2 0 0 1-3.2-3.2V115.67a3.2 3.2 0 0 1 3.2-3.2h406.738a3.2 3.2 0 0 1 3.2 3.2v264.936a3.2 3.2 0 0 1-3.2 3.203z" class="cls-3" data-name="Path 805" transform="translate(-59.009 -103.551)"/>
            <path id="Path_806" d="M406.021 193.387H263.874a3.064 3.064 0 0 1-3.063-3.064V130.13a3.063 3.063 0 0 1 3.063-3.064h142.147a3.064 3.064 0 0 1 3.065 3.064v60.193a3.065 3.065 0 0 1-3.065 3.064z" class="cls-4" data-name="Path 806" transform="translate(-74.709 -105.753)"/>
            <path id="Path_807" d="M352.05 299.276H175.543a2.86 2.86 0 0 1-2.86-2.861v-78.361a2.86 2.86 0 0 1 2.86-2.861H352.05a2.862 2.862 0 0 1 2.861 2.861v78.361a2.862 2.862 0 0 1-2.861 2.861z" class="cls-2" data-name="Path 807" transform="translate(-61.415 -119.046)"/>
            <path id="Path_808" d="M554.652 404.358H176.08a3.4 3.4 0 0 1-3.4-3.4v-73.324a3.4 3.4 0 0 1 3.4-3.4h378.572a3.4 3.4 0 0 1 3.4 3.4v73.328a3.4 3.4 0 0 1-3.4 3.396z" class="cls-5" data-name="Path 808" transform="translate(-61.415 -135.495)"/>
            <path id="Path_809" d="M595.5 193.387H446.851a3.4 3.4 0 0 1-3.4-3.4v-59.524a3.4 3.4 0 0 1 3.4-3.4H595.5a3.4 3.4 0 0 1 3.4 3.4v59.527a3.4 3.4 0 0 1-3.4 3.397z" class="cls-2" data-name="Path 809" transform="translate(-102.259 -105.753)"/>
            <path id="Path_810" d="M226.774 193.387h-71.055a3.4 3.4 0 0 1-3.4-3.4v-59.524a3.4 3.4 0 0 1 3.4-3.4h71.056a3.4 3.4 0 0 1 3.4 3.4v59.527a3.4 3.4 0 0 1-3.401 3.397z" class="cls-2" data-name="Path 810" transform="translate(-58.344 -105.753)"/>
            <path id="Path_811" d="M355.089 341.664h-161.34a.17.17 0 0 1 0-.341h161.34a.17.17 0 0 1 0 .341z" class="cls-2" data-name="Path 811" transform="translate(-64.567 -138.072)"/>
            <path id="Path_812" d="M225.147 179.924h-63.674a.17.17 0 1 1 0-.34h63.674a.17.17 0 1 1 0 .34z" class="cls-6" data-name="Path 812" transform="translate(-59.699 -113.675)"/>
            <path id="Path_813" d="M164.768 185.133l1.007 2.041 2.253.327-1.63 1.589.385 2.243-2.015-1.059-2.014 1.059.385-2.243-1.63-1.589 2.252-.327z" class="cls-7" data-name="Path 813" transform="translate(-59.73 -114.512)"/>
            <path id="Path_814" d="M174.765 185.133l1.007 2.041 2.253.327-1.63 1.589.385 2.243-2.015-1.059-2.014 1.059.385-2.243-1.63-1.589 2.252-.327z" class="cls-7" data-name="Path 814" transform="translate(-61.238 -114.512)"/>
            <path id="Path_815" d="M184.762 185.133l1.007 2.041 2.253.327-1.63 1.589.385 2.243-2.014-1.059-2.014 1.059.385-2.243-1.634-1.59 2.252-.327z" class="cls-7" data-name="Path 815" transform="translate(-62.746 -114.512)"/>
            <path id="Path_816" d="M194.759 185.133l1.006 2.041 2.254.327-1.63 1.589.385 2.243-2.014-1.059-2.015 1.059.385-2.243-1.63-1.59 2.252-.327z" class="cls-7" data-name="Path 816" transform="translate(-64.254 -114.512)"/>
            <path id="Path_817" d="M204.756 185.133l1.007 2.041 2.252.327-1.63 1.589.385 2.243-2.014-1.059-2.015 1.059.385-2.243-1.626-1.59 2.252-.327z" class="cls-7" data-name="Path 817" transform="translate(-65.762 -114.512)"/>
            <path id="Path_818" d="M159.629 153.172a14.117 14.117 0 0 0 4.835 10.646 13.3 13.3 0 0 0 1.793 1.333 14.134 14.134 0 0 0 15.794-23.425 13.389 13.389 0 0 0-2.308-1.352 14.123 14.123 0 0 0-20.115 12.8z" class="cls-6" data-name="Path 818" transform="translate(-59.446 -107.559)"/>
            <path id="Path_819" d="M180.333 161.22v-.232s.367.152 0 .232z" class="cls-8" data-name="Path 819" transform="translate(-62.569 -110.87)"/>
            <path id="Path_820" d="M165.323 166.22a13.3 13.3 0 0 0 1.793 1.333l14.8.1-3.926-3.291a1.286 1.286 0 0 0 .019-.533l.045-3.1v-.046l.009-.377a12.561 12.561 0 0 1-2.73-.046c-4.091-.322-5.893-4.7-6.1-5.241 0-.018 0-.027-.009-.036a.029.029 0 0 1-.009-.019v.3l-.018 1.471v.082l-.019 2.74-.008 1.241z" class="cls-8" data-name="Path 820" transform="translate(-60.305 -109.962)"/>
            <path id="Path_821" d="M167.422 147.022a2.764 2.764 0 0 0 .8 2 .354.354 0 0 0 .093.12c.256.276.514.5.679.644.046.037.093.073.147.11a.644.644 0 0 0 .074.055l-.027 2.105s.11.312.34.809c.009.018.009.027.019.046a11.128 11.128 0 0 0 3.732 4.587 7.673 7.673 0 0 0 .708.4 5.7 5.7 0 0 0 .423.193 6.207 6.207 0 0 0 3.962.194.263.263 0 0 0 .083-.019c5.139-1.388 3.944-11 3.227-14.912-.183-1.021-.341-1.655-.341-1.655a7.869 7.869 0 0 0-.423-1.324 14.141 14.141 0 0 0-10.627-.551l-.23 6.84a2.678 2.678 0 0 0-.349-.148.43.43 0 0 0-.092-.037 8.194 8.194 0 0 0-.239-.082.7.7 0 0 0-.2-.055.656.656 0 0 0-.129-.037c-.027-.009-.055-.009-.082-.018-.684-.157-1.47-.13-1.548.735z" class="cls-8" data-name="Path 821" transform="translate(-60.621 -107.559)"/>
            <path id="Path_822" d="M165.429 148.391c1.14 1.213.377 1.535.9 3.6a3.48 3.48 0 0 0 2.722 2.418v-.074a10.691 10.691 0 0 0 .036-1.425v-.295c0-.018 0-.027-.009-.037a17.035 17.035 0 0 0-.322-2.629.643.643 0 0 1-.074-.055c-.054-.037-.1-.074-.147-.11s-.092-.074-.138-.12a3.246 3.246 0 0 1-.542-.524.354.354 0 0 1-.093-.12 3.254 3.254 0 0 1-.672-1.756.946.946 0 0 1 .929-1.029 2.867 2.867 0 0 1 .487.046c.027.008.055.008.082.018a.656.656 0 0 1 .129.037.7.7 0 0 1 .2.055c.082.027.166.055.239.082a.43.43 0 0 1 .092.037 2.678 2.678 0 0 1 .349.148l1.251-1.986c.846-1.636 2.427-2.031 4.146-2.013a18.061 18.061 0 0 1 4.394.552 4.147 4.147 0 0 0 1.829.138 1.8 1.8 0 0 0 1.2-.808 2.658 2.658 0 0 0 .34-.819 13.388 13.388 0 0 0-2.308-1.352 14.13 14.13 0 0 0-13.964 1.131 1.273 1.273 0 0 1-1.021 1.011c-1.699.317-1.164 4.675-.035 5.879z" class="cls-9" data-name="Path 822" transform="translate(-60.163 -107.559)"/>
            <path id="Path_823" d="M178.822 160.993a5.23 5.23 0 0 1-4.464-.363 16.156 16.156 0 0 1-4.474-3.488l-.02 2.75s5.225 4.156 8.958 1.101z" class="cls-10" data-name="Path 823" transform="translate(-60.99 -110.29)"/>
            <path id="Path_824" d="M167.722 164.239l1.5 2.353a5.2 5.2 0 0 0 4.349 2.4l1.294.009a2.988 2.988 0 0 0 2.943-2.373l.183-.87 3.893 3.291h.033v.028a14.119 14.119 0 0 1-14.8-.129s-1.308-.887-1.793-1.333z" class="cls-11" data-name="Path 824" transform="translate(-60.305 -111.36)"/>
            <path id="Path_825" d="M231.286 147.478h-30.217a1.516 1.516 0 0 1-1.517-1.516v-.426a1.516 1.516 0 0 1 1.517-1.516h30.217a1.516 1.516 0 0 1 1.516 1.516v.426a1.516 1.516 0 0 1-1.516 1.516z" class="cls-6" data-name="Path 825" transform="translate(-65.468 -108.31)"/>
            <path id="Path_826" d="M221.858 154.459h-21.3a.425.425 0 1 1 0-.849h21.3a.425.425 0 1 1 0 .849z" class="cls-12" data-name="Path 826" transform="translate(-65.556 -109.757)"/>
            <path id="Path_827" d="M216.265 160.349H200.56a.425.425 0 1 1 0-.849h15.705a.425.425 0 0 1 0 .849z" class="cls-12" data-name="Path 827" transform="translate(-65.556 -110.645)"/>
            <path id="Path_828" d="M208.412 166.238h-7.852a.425.425 0 0 1 0-.849h7.852a.425.425 0 0 1 0 .849z" class="cls-12" data-name="Path 828" transform="translate(-65.556 -111.534)"/>
            <path id="Path_829" d="M287.752 144.238a3.3 3.3 0 0 0-.155-.341 4.349 4.349 0 0 0-1.494-1.68 3.94 3.94 0 0 0-2.08-.654 4.1 4.1 0 0 0-3.31 1.632 4.093 4.093 0 0 0-3.242-1.765 3.952 3.952 0 0 0-2.1.566 4.724 4.724 0 0 0-2.039 5.172 4.569 4.569 0 0 0 .374 1.018c.622 1.224 2.65 3.089 4.326 4.5.1.085.2.166.289.244a80.359 80.359 0 0 0 1.647 1.327.87.87 0 0 0 1.045.023l.65-.47c.945-.7 2.311-1.738 3.505-2.788l.01-.009a12.322 12.322 0 0 0 2.288-2.458c.019-.03.035-.058.051-.086a4.84 4.84 0 0 0 .239-4.231z" class="cls-7" data-name="Path 829" transform="translate(-76.575 -107.92)"/>
            <path id="Path_830" d="M344.952 185.024a.308.308 0 0 1-.039 0 .424.424 0 0 1-.375-.33l-8.01-36.044-9.719 26.637a.427.427 0 0 1-.392.279.445.445 0 0 1-.4-.267l-6.228-15.536-4.477 3.342a.426.426 0 0 1-.6-.092l-2.277-3.158-4.208 6.805a.425.425 0 0 1-.361.2H289.7a.425.425 0 1 1 0-.849h17.927l4.416-7.144a.426.426 0 0 1 .346-.2.416.416 0 0 1 .359.176l2.4 3.324 4.574-3.415a.431.431 0 0 1 .368-.069.425.425 0 0 1 .279.251l6.021 15.019 9.837-26.96a.417.417 0 0 1 .427-.279.425.425 0 0 1 .386.332l8.037 36.168 7.429-17.51a.424.424 0 0 1 .655-.167l4.065 3.219 8.512-25.536a.425.425 0 0 1 .791-.04l10.316 22.843 6-7.2a.411.411 0 0 1 .364-.151.424.424 0 0 1 .33.213l4.041 7.13h7.709a.425.425 0 1 1 0 .849h-7.956a.423.423 0 0 1-.369-.215l-3.859-6.812-6.041 7.253a.424.424 0 0 1-.713-.1L366.2 144.517l-8.36 25.082a.426.426 0 0 1-.667.2l-4.1-3.25-7.729 18.219a.423.423 0 0 1-.392.256z" class="cls-2" data-name="Path 830" transform="translate(-79.003 -108.146)"/>
            <path id="Path_831" d="M517.1 146.442h-29.79a1.729 1.729 0 1 1 0-3.459h29.79a1.729 1.729 0 0 1 0 3.459z" class="cls-6" data-name="Path 831" transform="translate(-108.613 -108.154)"/>
            <path id="Path_832" d="M500.476 146.442H487.31a1.729 1.729 0 1 1 0-3.459h13.166a1.729 1.729 0 1 1 0 3.459z" class="cls-7" data-name="Path 832" transform="translate(-108.613 -108.154)"/>
            <path id="Path_833" d="M517.1 165.547h-29.79a1.729 1.729 0 1 1 0-3.459h29.79a1.729 1.729 0 0 1 0 3.459z" class="cls-6" data-name="Path 833" transform="translate(-108.613 -111.036)"/>
            <path id="Path_834" d="M513.238 165.547H487.31a1.729 1.729 0 1 1 0-3.459h25.928a1.729 1.729 0 1 1 0 3.459z" class="cls-7" data-name="Path 834" transform="translate(-108.613 -111.036)"/>
            <path id="Path_835" d="M517.1 186.556h-29.79a1.729 1.729 0 1 1 0-3.459h29.79a1.729 1.729 0 0 1 0 3.459z" class="cls-6" data-name="Path 835" transform="translate(-108.613 -114.205)"/>
            <path id="Path_836" d="M488.772 186.556h-1.462a1.729 1.729 0 1 1 0-3.459h1.462a1.729 1.729 0 0 1 0 3.459z" class="cls-7" data-name="Path 836" transform="translate(-108.613 -114.205)"/>
            <path id="Path_837" d="M463.953 144.813l.245-2.408h2.475v.567h-1.953l-.146 1.317a1.629 1.629 0 0 1 .333-.143 1.655 1.655 0 0 1 1.072.048 1.24 1.24 0 0 1 .453.325 1.439 1.439 0 0 1 .285.509 2.26 2.26 0 0 1 .005 1.309 1.4 1.4 0 0 1-.284.507 1.294 1.294 0 0 1-.476.335 1.73 1.73 0 0 1-.675.121 1.844 1.844 0 0 1-.553-.081 1.381 1.381 0 0 1-.463-.247 1.316 1.316 0 0 1-.331-.418 1.592 1.592 0 0 1-.16-.591h.581a.978.978 0 0 0 .3.626.919.919 0 0 0 .63.211.934.934 0 0 0 .388-.076.783.783 0 0 0 .287-.219.986.986 0 0 0 .179-.346 1.588 1.588 0 0 0 .061-.456 1.373 1.373 0 0 0-.063-.421.966.966 0 0 0-.186-.341.848.848 0 0 0-.3-.227.976.976 0 0 0-.413-.083 1.45 1.45 0 0 0-.268.021.917.917 0 0 0-.2.062.775.775 0 0 0-.164.1c-.05.038-.1.081-.157.127z" class="cls-6" data-name="Path 837" transform="translate(-105.325 -108.067)"/>
            <path id="Path_838" d="M470.556 144.323a3.51 3.51 0 0 0-.058-.693 1.3 1.3 0 0 0-.174-.463.691.691 0 0 0-.287-.257 1 1 0 0 0-.783 0 .688.688 0 0 0-.285.257 1.37 1.37 0 0 0-.174.463 3.434 3.434 0 0 0-.059.693v.936a3.487 3.487 0 0 0 .059.695 1.437 1.437 0 0 0 .177.476.74.74 0 0 0 .289.272.932.932 0 0 0 .785 0 .717.717 0 0 0 .284-.272 1.42 1.42 0 0 0 .171-.476 3.646 3.646 0 0 0 .056-.695zm.614.84a3.988 3.988 0 0 1-.106 1 1.775 1.775 0 0 1-.3.657 1.122 1.122 0 0 1-.478.36 1.886 1.886 0 0 1-1.262 0 1.142 1.142 0 0 1-.481-.36 1.8 1.8 0 0 1-.308-.657 3.9 3.9 0 0 1-.11-1v-.737a3.929 3.929 0 0 1 .108-1 1.741 1.741 0 0 1 .307-.646 1.122 1.122 0 0 1 .48-.352 1.754 1.754 0 0 1 .628-.106 1.773 1.773 0 0 1 .633.106 1.117 1.117 0 0 1 .481.352 1.713 1.713 0 0 1 .3.646 3.934 3.934 0 0 1 .106 1z" class="cls-6" data-name="Path 838" transform="translate(-105.98 -108.055)"/>
            <path id="Path_839" d="M475.384 146.3a.753.753 0 0 0 .033.224.568.568 0 0 0 .1.191.5.5 0 0 0 .167.132.536.536 0 0 0 .238.05.512.512 0 0 0 .232-.05.467.467 0 0 0 .164-.132.564.564 0 0 0 .1-.191.781.781 0 0 0 .031-.224v-.258a.758.758 0 0 0-.033-.224.589.589 0 0 0-.1-.189.474.474 0 0 0-.166-.131.576.576 0 0 0-.466 0 .5.5 0 0 0-.166.131.56.56 0 0 0-.1.189.757.757 0 0 0-.033.224zm-.458-.258a1.1 1.1 0 0 1 .068-.385.907.907 0 0 1 .507-.531 1.118 1.118 0 0 1 .83 0 .912.912 0 0 1 .508.531 1.1 1.1 0 0 1 .068.385v.258a1.1 1.1 0 0 1-.068.387.914.914 0 0 1-.2.315.935.935 0 0 1-.31.214 1.025 1.025 0 0 1-.411.079 1.052 1.052 0 0 1-.417-.079.977.977 0 0 1-.313-.214.928.928 0 0 1-.2-.315 1.1 1.1 0 0 1-.068-.387zm-1.218.819l-.348-.219 2.358-3.775.349.219zm-.677-3.281a.766.766 0 0 0 .033.222.585.585 0 0 0 .1.189.487.487 0 0 0 .167.132.534.534 0 0 0 .237.05.516.516 0 0 0 .233-.05.48.48 0 0 0 .164-.131.539.539 0 0 0 .1-.189.754.754 0 0 0 .031-.224v-.255a.728.728 0 0 0-.033-.224.565.565 0 0 0-.1-.191.466.466 0 0 0-.166-.132.575.575 0 0 0-.47 0 .467.467 0 0 0-.164.132.6.6 0 0 0-.1.191.782.782 0 0 0-.033.224zm-.458-.255a1.121 1.121 0 0 1 .068-.387.956.956 0 0 1 .2-.317.908.908 0 0 1 .312-.215 1.022 1.022 0 0 1 .413-.08 1.035 1.035 0 0 1 .417.08.9.9 0 0 1 .31.215.936.936 0 0 1 .194.317 1.083 1.083 0 0 1 .068.387v.255a1.085 1.085 0 0 1-.066.383.9.9 0 0 1-.194.316.947.947 0 0 1-.311.214 1.019 1.019 0 0 1-.411.079 1.045 1.045 0 0 1-.416-.079.959.959 0 0 1-.313-.214.914.914 0 0 1-.2-.316 1.1 1.1 0 0 1-.068-.383z" class="cls-6" data-name="Path 839" transform="translate(-106.652 -108.054)"/>
            <path id="Path_840" d="M465.962 162.811a.957.957 0 0 0-.058-.332.768.768 0 0 0-.166-.263.75.75 0 0 0-.256-.174.833.833 0 0 0-.329-.064.891.891 0 0 0-.329.059.712.712 0 0 0-.423.428.989.989 0 0 0-.058.346.951.951 0 0 0 .058.338.71.71 0 0 0 .419.426.968.968 0 0 0 .663 0 .719.719 0 0 0 .256-.166.731.731 0 0 0 .165-.261.97.97 0 0 0 .058-.337zm.113 2.242a1.012 1.012 0 0 0-.068-.371.844.844 0 0 0-.191-.29.854.854 0 0 0-.294-.188 1.106 1.106 0 0 0-.754 0 .808.808 0 0 0-.473.478 1.115 1.115 0 0 0 0 .743.754.754 0 0 0 .183.277.785.785 0 0 0 .29.174 1.257 1.257 0 0 0 .769 0 .763.763 0 0 0 .475-.451 1.01 1.01 0 0 0 .063-.373zm.5-2.252a1.12 1.12 0 0 1-.191.644 1.3 1.3 0 0 1-.515.441 1.491 1.491 0 0 1 .336.2 1.318 1.318 0 0 1 .259.27 1.2 1.2 0 0 1 .166.33 1.243 1.243 0 0 1 .058.381 1.4 1.4 0 0 1-.117.588 1.219 1.219 0 0 1-.325.429 1.408 1.408 0 0 1-.487.264 2.106 2.106 0 0 1-1.213 0 1.4 1.4 0 0 1-.487-.264 1.215 1.215 0 0 1-.324-.429 1.4 1.4 0 0 1-.118-.588 1.244 1.244 0 0 1 .057-.381 1.264 1.264 0 0 1 .16-.332 1.278 1.278 0 0 1 .254-.272 1.41 1.41 0 0 1 .335-.2 1.271 1.271 0 0 1-.507-.442 1.13 1.13 0 0 1-.186-.64 1.4 1.4 0 0 1 .106-.562 1.172 1.172 0 0 1 .3-.416 1.292 1.292 0 0 1 .451-.259 1.865 1.865 0 0 1 1.14 0 1.307 1.307 0 0 1 .451.259 1.164 1.164 0 0 1 .3.416 1.4 1.4 0 0 1 .098.562z" class="cls-6" data-name="Path 840" transform="translate(-105.301 -110.943)"/>
            <path id="Path_841" d="M470.556 163.47a3.579 3.579 0 0 0-.058-.693 1.3 1.3 0 0 0-.174-.463.7.7 0 0 0-.287-.257.932.932 0 0 0-.393-.08.922.922 0 0 0-.39.08.683.683 0 0 0-.285.257 1.37 1.37 0 0 0-.174.463 3.434 3.434 0 0 0-.059.693v.936a3.487 3.487 0 0 0 .059.695 1.437 1.437 0 0 0 .177.476.729.729 0 0 0 .289.272.932.932 0 0 0 .785 0 .717.717 0 0 0 .284-.272 1.439 1.439 0 0 0 .171-.476 3.646 3.646 0 0 0 .056-.695zm.614.839a3.991 3.991 0 0 1-.106 1 1.8 1.8 0 0 1-.3.657 1.113 1.113 0 0 1-.478.359 1.872 1.872 0 0 1-1.262 0 1.134 1.134 0 0 1-.481-.359 1.805 1.805 0 0 1-.308-.657 3.9 3.9 0 0 1-.11-1v-.736a3.929 3.929 0 0 1 .108-1 1.721 1.721 0 0 1 .307-.646 1.117 1.117 0 0 1 .48-.352 1.754 1.754 0 0 1 .628-.106 1.777 1.777 0 0 1 .633.106 1.122 1.122 0 0 1 .481.352 1.72 1.72 0 0 1 .3.646 3.934 3.934 0 0 1 .106 1z" class="cls-6" data-name="Path 841" transform="translate(-105.98 -110.943)"/>
            <path id="Path_842" d="M475.384 165.443a.753.753 0 0 0 .033.224.54.54 0 0 0 .1.191.487.487 0 0 0 .167.132.533.533 0 0 0 .238.05.515.515 0 0 0 .232-.05.467.467 0 0 0 .164-.132.58.58 0 0 0 .1-.191.781.781 0 0 0 .031-.224v-.258a.787.787 0 0 0-.033-.224.589.589 0 0 0-.1-.189.474.474 0 0 0-.166-.131.527.527 0 0 0-.234-.049.518.518 0 0 0-.233.049.5.5 0 0 0-.166.131.532.532 0 0 0-.1.189.757.757 0 0 0-.033.224zm-.458-.258a1.1 1.1 0 0 1 .068-.385.907.907 0 0 1 .507-.531 1.118 1.118 0 0 1 .83 0 .912.912 0 0 1 .508.531 1.119 1.119 0 0 1 .068.385v.258a1.114 1.114 0 0 1-.068.386.923.923 0 0 1-.2.316.944.944 0 0 1-.31.214 1.025 1.025 0 0 1-.411.079 1.052 1.052 0 0 1-.417-.079.977.977 0 0 1-.313-.214.911.911 0 0 1-.2-.316 1.094 1.094 0 0 1-.068-.386zm-1.218.819l-.348-.219 2.358-3.775.349.219zm-.677-3.281a.766.766 0 0 0 .033.222.555.555 0 0 0 .1.189.479.479 0 0 0 .167.132.532.532 0 0 0 .237.05.518.518 0 0 0 .233-.05.481.481 0 0 0 .164-.131.554.554 0 0 0 .1-.189.757.757 0 0 0 .031-.224v-.255a.753.753 0 0 0-.033-.224.566.566 0 0 0-.1-.191.466.466 0 0 0-.166-.132.529.529 0 0 0-.234-.05.519.519 0 0 0-.235.05.466.466 0 0 0-.164.132.583.583 0 0 0-.1.191.782.782 0 0 0-.033.224zm-.458-.255a1.121 1.121 0 0 1 .068-.387.942.942 0 0 1 .2-.317.913.913 0 0 1 .312-.216 1.037 1.037 0 0 1 .413-.079 1.052 1.052 0 0 1 .417.079.923.923 0 0 1 .31.216.936.936 0 0 1 .194.317 1.1 1.1 0 0 1 .068.387v.255a1.085 1.085 0 0 1-.066.383.93.93 0 0 1-.194.316.957.957 0 0 1-.311.214 1.02 1.02 0 0 1-.411.079 1.045 1.045 0 0 1-.416-.079.959.959 0 0 1-.313-.214.9.9 0 0 1-.2-.316 1.1 1.1 0 0 1-.068-.383z" class="cls-6" data-name="Path 842" transform="translate(-106.652 -110.943)"/>
            <path id="Path_843" d="M466.8 186.565h-3.165v-.441l1.583-1.759q.219-.242.363-.428a2.628 2.628 0 0 0 .229-.34 1.217 1.217 0 0 0 .118-.289 1.137 1.137 0 0 0 .033-.273.979.979 0 0 0-.057-.337.79.79 0 0 0-.162-.273.754.754 0 0 0-.262-.184.89.89 0 0 0-.358-.068 1.146 1.146 0 0 0-.426.073.827.827 0 0 0-.3.2.841.841 0 0 0-.179.311 1.261 1.261 0 0 0-.059.4h-.614a1.647 1.647 0 0 1 .1-.577 1.327 1.327 0 0 1 .3-.475 1.41 1.41 0 0 1 .494-.32 1.843 1.843 0 0 1 .683-.118 1.873 1.873 0 0 1 .612.093 1.281 1.281 0 0 1 .458.263 1.134 1.134 0 0 1 .287.41 1.357 1.357 0 0 1 .1.527 1.319 1.319 0 0 1-.073.428 2.379 2.379 0 0 1-.2.43 3.44 3.44 0 0 1-.289.425q-.166.21-.348.413l-1.3 1.406h2.432z" class="cls-6" data-name="Path 843" transform="translate(-105.289 -113.989)"/>
            <path id="Path_844" d="M468.575 184.955h1.5v-2.368l-.073.132zm2.119 0h.67v.5h-.67v1.121h-.616v-1.121h-2.2v-.362l2.163-3.347h.653z" class="cls-6" data-name="Path 844" transform="translate(-105.943 -114.001)"/>
            <path id="Path_845" d="M475.384 185.639a.757.757 0 0 0 .033.224.564.564 0 0 0 .1.19.5.5 0 0 0 .167.133.536.536 0 0 0 .238.049.512.512 0 0 0 .232-.049.469.469 0 0 0 .164-.133.56.56 0 0 0 .1-.19.785.785 0 0 0 .031-.224v-.258a.754.754 0 0 0-.033-.224.581.581 0 0 0-.1-.189.474.474 0 0 0-.166-.131.567.567 0 0 0-.466 0 .5.5 0 0 0-.166.131.552.552 0 0 0-.1.189.753.753 0 0 0-.033.224zm-.458-.258a1.1 1.1 0 0 1 .068-.386.95.95 0 0 1 .2-.317.961.961 0 0 1 .312-.214 1.129 1.129 0 0 1 .83 0 .934.934 0 0 1 .312.214.913.913 0 0 1 .2.317 1.1 1.1 0 0 1 .068.386v.258a1.1 1.1 0 0 1-.068.386.919.919 0 0 1-.506.529 1.011 1.011 0 0 1-.411.08 1.038 1.038 0 0 1-.417-.08.952.952 0 0 1-.313-.214.921.921 0 0 1-.2-.315 1.094 1.094 0 0 1-.068-.386zm-1.218.819l-.348-.218 2.358-3.775.349.219zm-.677-3.28a.775.775 0 0 0 .033.222.581.581 0 0 0 .1.189.489.489 0 0 0 .167.133.534.534 0 0 0 .237.049.516.516 0 0 0 .233-.049.483.483 0 0 0 .164-.132.535.535 0 0 0 .1-.189.761.761 0 0 0 .031-.224v-.256a.726.726 0 0 0-.033-.223.565.565 0 0 0-.1-.191.466.466 0 0 0-.166-.132.575.575 0 0 0-.47 0 .466.466 0 0 0-.164.132.6.6 0 0 0-.1.191.78.78 0 0 0-.033.223zm-.458-.256a1.117 1.117 0 0 1 .068-.386.956.956 0 0 1 .2-.317.922.922 0 0 1 .312-.216 1.037 1.037 0 0 1 .413-.079 1.049 1.049 0 0 1 .417.079.915.915 0 0 1 .31.216.937.937 0 0 1 .194.317 1.078 1.078 0 0 1 .068.386v.256a1.085 1.085 0 0 1-.066.383.9.9 0 0 1-.194.315.923.923 0 0 1-.311.214 1 1 0 0 1-.411.08 1.03 1.03 0 0 1-.416-.08.934.934 0 0 1-.313-.214.91.91 0 0 1-.2-.315 1.1 1.1 0 0 1-.068-.383z" class="cls-6" data-name="Path 845" transform="translate(-106.652 -113.989)"/>
            <path id="Path_846" d="M601.173 146.442h-29.791a1.729 1.729 0 1 1 0-3.459h29.791a1.729 1.729 0 1 1 0 3.459z" class="cls-6" data-name="Path 846" transform="translate(-121.295 -108.154)"/>
            <path id="Path_847" d="M601.173 165.547h-29.791a1.729 1.729 0 1 1 0-3.459h29.791a1.729 1.729 0 1 1 0 3.459z" class="cls-6" data-name="Path 847" transform="translate(-121.295 -111.036)"/>
            <path id="Path_848" d="M600.327 165.547h-28.945a1.729 1.729 0 1 1 0-3.459h28.945a1.729 1.729 0 1 1 0 3.459z" class="cls-7" data-name="Path 848" transform="translate(-121.295 -111.036)"/>
            <path id="Path_849" d="M601.173 186.556h-29.791a1.729 1.729 0 1 1 0-3.459h29.791a1.729 1.729 0 1 1 0 3.459z" class="cls-6" data-name="Path 849" transform="translate(-121.295 -114.205)"/>
            <path id="Path_850" d="M577.049 186.556h-5.795a1.6 1.6 0 0 1-1.6-1.6v-.256a1.6 1.6 0 0 1 1.6-1.6h5.795a1.6 1.6 0 0 1 1.6 1.6v.255a1.6 1.6 0 0 1-1.6 1.601z" class="cls-7" data-name="Path 850" transform="translate(-121.295 -114.205)"/>
            <path id="Path_851" d="M550.136 144.323a3.582 3.582 0 0 0-.058-.693 1.3 1.3 0 0 0-.174-.463.7.7 0 0 0-.287-.257.931.931 0 0 0-.393-.08.921.921 0 0 0-.39.08.683.683 0 0 0-.285.257 1.371 1.371 0 0 0-.174.463 3.433 3.433 0 0 0-.06.693v.936a3.487 3.487 0 0 0 .06.695 1.436 1.436 0 0 0 .177.476.728.728 0 0 0 .289.272.931.931 0 0 0 .784 0 .717.717 0 0 0 .284-.272 1.438 1.438 0 0 0 .171-.476 3.646 3.646 0 0 0 .056-.695zm.614.84a3.991 3.991 0 0 1-.106 1 1.8 1.8 0 0 1-.3.657 1.123 1.123 0 0 1-.478.36 1.886 1.886 0 0 1-1.262 0 1.142 1.142 0 0 1-.481-.36 1.806 1.806 0 0 1-.308-.657 3.9 3.9 0 0 1-.11-1v-.737a3.929 3.929 0 0 1 .108-1 1.729 1.729 0 0 1 .307-.646 1.117 1.117 0 0 1 .48-.352 1.928 1.928 0 0 1 1.262 0 1.122 1.122 0 0 1 .482.352 1.728 1.728 0 0 1 .3.646 3.937 3.937 0 0 1 .106 1z" class="cls-6" data-name="Path 851" transform="translate(-117.984 -108.055)"/>
            <path id="Path_852" d="M554.964 146.3a.78.78 0 0 0 .033.224.538.538 0 0 0 .1.191.487.487 0 0 0 .167.132.533.533 0 0 0 .238.05.514.514 0 0 0 .232-.05.476.476 0 0 0 .165-.132.593.593 0 0 0 .1-.191.783.783 0 0 0 .031-.224v-.258a.786.786 0 0 0-.033-.224.59.59 0 0 0-.1-.189.473.473 0 0 0-.167-.131.527.527 0 0 0-.233-.049.519.519 0 0 0-.233.049.5.5 0 0 0-.166.131.531.531 0 0 0-.1.189.784.784 0 0 0-.033.224zm-.458-.258a1.1 1.1 0 0 1 .068-.385.905.905 0 0 1 .508-.531 1.115 1.115 0 0 1 .829 0 .912.912 0 0 1 .508.531 1.1 1.1 0 0 1 .068.385v.258a1.1 1.1 0 0 1-.068.387.926.926 0 0 1-.2.315.943.943 0 0 1-.31.214 1.023 1.023 0 0 1-.411.079 1.052 1.052 0 0 1-.417-.079.975.975 0 0 1-.313-.214.916.916 0 0 1-.2-.315 1.1 1.1 0 0 1-.068-.387zm-1.218.819l-.348-.219 2.358-3.775.349.219zm-.677-3.281a.764.764 0 0 0 .033.222.554.554 0 0 0 .1.189.479.479 0 0 0 .167.132.532.532 0 0 0 .237.05.518.518 0 0 0 .233-.05.48.48 0 0 0 .164-.131.556.556 0 0 0 .1-.189.753.753 0 0 0 .031-.224v-.255a.755.755 0 0 0-.033-.224.564.564 0 0 0-.1-.191.466.466 0 0 0-.166-.132.529.529 0 0 0-.234-.05.52.52 0 0 0-.235.05.467.467 0 0 0-.164.132.58.58 0 0 0-.1.191.78.78 0 0 0-.033.224zm-.458-.255a1.122 1.122 0 0 1 .068-.387.941.941 0 0 1 .2-.317.908.908 0 0 1 .312-.215 1.025 1.025 0 0 1 .413-.08 1.038 1.038 0 0 1 .417.08.91.91 0 0 1 .31.215.936.936 0 0 1 .194.317 1.1 1.1 0 0 1 .068.387v.255a1.083 1.083 0 0 1-.066.383.915.915 0 0 1-.194.316.961.961 0 0 1-.31.214 1.026 1.026 0 0 1-.412.079 1.047 1.047 0 0 1-.416-.079.958.958 0 0 1-.313-.214.9.9 0 0 1-.2-.316 1.105 1.105 0 0 1-.068-.383z" class="cls-6" data-name="Path 852" transform="translate(-118.656 -108.054)"/>
            <path id="Path_853" d="M549.119 164.247a.928.928 0 0 0 .3-.049.987.987 0 0 0 .269-.139 1.28 1.28 0 0 0 .221-.209 1.112 1.112 0 0 0 .157-.259v-.245a1.992 1.992 0 0 0-.076-.583 1.392 1.392 0 0 0-.2-.426.893.893 0 0 0-.3-.262.725.725 0 0 0-.35-.09.8.8 0 0 0-.661.324 1.082 1.082 0 0 0-.174.357 1.6 1.6 0 0 0-.059.447 1.681 1.681 0 0 0 .053.419 1.155 1.155 0 0 0 .161.363.835.835 0 0 0 .273.256.747.747 0 0 0 .386.096zm-.736 1.609a2.151 2.151 0 0 0 .819-.134 1.255 1.255 0 0 0 .773-.873 2.806 2.806 0 0 0 .089-.6 1.5 1.5 0 0 1-.459.369 1.247 1.247 0 0 1-.585.139 1.244 1.244 0 0 1-1.047-.51 1.615 1.615 0 0 1-.249-.515 2.2 2.2 0 0 1 .015-1.234 1.568 1.568 0 0 1 .284-.532 1.313 1.313 0 0 1 .468-.358 1.512 1.512 0 0 1 .648-.131 1.4 1.4 0 0 1 .706.167 1.429 1.429 0 0 1 .478.442 1.944 1.944 0 0 1 .272.626 2.933 2.933 0 0 1 .087.718v.222c0 .211-.01.423-.031.639a3.625 3.625 0 0 1-.12.627 2.413 2.413 0 0 1-.245.569 1.618 1.618 0 0 1-.413.463 1.971 1.971 0 0 1-.622.312 2.919 2.919 0 0 1-.867.115h-.06v-.517z" class="cls-6" data-name="Path 853" transform="translate(-117.975 -110.943)"/>
            <path id="Path_854" d="M554.527 162.811a.939.939 0 0 0-.058-.332.765.765 0 0 0-.166-.263.753.753 0 0 0-.257-.174.828.828 0 0 0-.329-.064.89.89 0 0 0-.328.059.725.725 0 0 0-.257.166.734.734 0 0 0-.167.262 1.008 1.008 0 0 0-.058.346.97.97 0 0 0 .058.338.731.731 0 0 0 .165.261.719.719 0 0 0 .256.166.968.968 0 0 0 .663 0 .71.71 0 0 0 .42-.426.952.952 0 0 0 .058-.339zm.113 2.242a1 1 0 0 0-.068-.371.836.836 0 0 0-.484-.478 1.108 1.108 0 0 0-.755 0 .832.832 0 0 0-.289.188.841.841 0 0 0-.184.29 1.047 1.047 0 0 0-.065.371 1.026 1.026 0 0 0 .064.372.751.751 0 0 0 .182.277.784.784 0 0 0 .29.174 1.257 1.257 0 0 0 .769 0 .763.763 0 0 0 .475-.451.991.991 0 0 0 .064-.373zm.5-2.252a1.113 1.113 0 0 1-.191.644 1.294 1.294 0 0 1-.515.441 1.489 1.489 0 0 1 .336.2 1.3 1.3 0 0 1 .259.27 1.18 1.18 0 0 1 .166.33 1.244 1.244 0 0 1 .059.381 1.4 1.4 0 0 1-.118.588 1.219 1.219 0 0 1-.325.429 1.4 1.4 0 0 1-.487.264 2.106 2.106 0 0 1-1.213 0 1.408 1.408 0 0 1-.487-.264 1.214 1.214 0 0 1-.323-.429 1.412 1.412 0 0 1-.117-.588 1.236 1.236 0 0 1 .217-.713 1.277 1.277 0 0 1 .253-.272 1.415 1.415 0 0 1 .335-.2 1.28 1.28 0 0 1-.508-.442 1.137 1.137 0 0 1-.186-.64 1.4 1.4 0 0 1 .106-.562 1.182 1.182 0 0 1 .3-.416 1.3 1.3 0 0 1 .451-.259 1.865 1.865 0 0 1 1.14 0 1.306 1.306 0 0 1 .451.259 1.156 1.156 0 0 1 .3.416 1.4 1.4 0 0 1 .098.562z" class="cls-6" data-name="Path 854" transform="translate(-118.66 -110.943)"/>
            <path id="Path_855" d="M559.456 165.443a.78.78 0 0 0 .033.224.567.567 0 0 0 .1.191.49.49 0 0 0 .168.132.53.53 0 0 0 .237.05.515.515 0 0 0 .232-.05.477.477 0 0 0 .165-.132.58.58 0 0 0 .1-.191.783.783 0 0 0 .031-.224v-.258a.789.789 0 0 0-.033-.224.557.557 0 0 0-.1-.189.466.466 0 0 0-.166-.131.524.524 0 0 0-.233-.049.515.515 0 0 0-.232.049.506.506 0 0 0-.166.131.559.559 0 0 0-.1.189.784.784 0 0 0-.033.224zm-.458-.258a1.1 1.1 0 0 1 .068-.385.912.912 0 0 1 .508-.531 1.019 1.019 0 0 1 .413-.08 1.03 1.03 0 0 1 .416.08.921.921 0 0 1 .313.214.93.93 0 0 1 .2.317 1.1 1.1 0 0 1 .068.385v.258a1.094 1.094 0 0 1-.068.386.935.935 0 0 1-.2.316.956.956 0 0 1-.311.214 1.02 1.02 0 0 1-.411.079 1.045 1.045 0 0 1-.416-.079.958.958 0 0 1-.313-.214.9.9 0 0 1-.2-.316 1.094 1.094 0 0 1-.068-.386zm-1.218.815l-.348-.219 2.359-3.775.348.219zm-.676-3.281a.74.74 0 0 0 .033.222.54.54 0 0 0 .1.189.488.488 0 0 0 .167.132.532.532 0 0 0 .237.05.516.516 0 0 0 .233-.05.48.48 0 0 0 .164-.131.553.553 0 0 0 .1-.189.755.755 0 0 0 .032-.224v-.255a.756.756 0 0 0-.034-.224.566.566 0 0 0-.1-.191.465.465 0 0 0-.166-.132.527.527 0 0 0-.234-.05.52.52 0 0 0-.236.05.473.473 0 0 0-.164.132.564.564 0 0 0-.1.191.755.755 0 0 0-.033.224zm-.458-.255a1.1 1.1 0 0 1 .069-.387.916.916 0 0 1 .507-.532 1.041 1.041 0 0 1 .414-.079 1.051 1.051 0 0 1 .416.079.924.924 0 0 1 .31.216.938.938 0 0 1 .194.317 1.121 1.121 0 0 1 .068.387v.255a1.085 1.085 0 0 1-.067.383.9.9 0 0 1-.194.316.961.961 0 0 1-.31.214 1.027 1.027 0 0 1-.412.079 1.051 1.051 0 0 1-.416-.079.978.978 0 0 1-.313-.214.888.888 0 0 1-.2-.316 1.086 1.086 0 0 1-.069-.383z" class="cls-6" data-name="Path 855" transform="translate(-119.333 -110.943)"/>
            <path id="Path_856" d="M549.771 186.573h-.617v-4.09l-1.237.454v-.557l1.758-.661h.1z" class="cls-6" data-name="Path 856" transform="translate(-118.016 -113.997)"/>
            <path id="Path_857" d="M553.822 183.92a.946.946 0 0 0-.312.052 1.031 1.031 0 0 0-.273.141 1.1 1.1 0 0 0-.219.211.933.933 0 0 0-.144.26v.226a1.941 1.941 0 0 0 .078.572 1.291 1.291 0 0 0 .209.414.919.919 0 0 0 .3.254.763.763 0 0 0 .352.087.849.849 0 0 0 .378-.082.787.787 0 0 0 .28-.229 1.039 1.039 0 0 0 .174-.35 1.631 1.631 0 0 0 .005-.86 1.105 1.105 0 0 0-.164-.355.809.809 0 0 0-.275-.247.786.786 0 0 0-.389-.094zm.806-2.176v.521h-.057a1.9 1.9 0 0 0-.749.132 1.429 1.429 0 0 0-.508.353 1.529 1.529 0 0 0-.3.506 2.394 2.394 0 0 0-.129.59 1.191 1.191 0 0 1 .466-.333 1.565 1.565 0 0 1 .576-.1 1.317 1.317 0 0 1 .622.138 1.282 1.282 0 0 1 .43.361 1.551 1.551 0 0 1 .25.509 2.116 2.116 0 0 1 .081.584 2.058 2.058 0 0 1-.1.645 1.494 1.494 0 0 1-.285.521 1.344 1.344 0 0 1-.467.348 1.544 1.544 0 0 1-.647.127 1.389 1.389 0 0 1-.684-.162 1.515 1.515 0 0 1-.486-.426 1.9 1.9 0 0 1-.29-.6 2.372 2.372 0 0 1-.1-.667v-.291a5.289 5.289 0 0 1 .042-.675 3.368 3.368 0 0 1 .144-.644 2.458 2.458 0 0 1 .273-.571 1.81 1.81 0 0 1 .428-.458 1.947 1.947 0 0 1 .611-.3 2.757 2.757 0 0 1 .817-.11z" class="cls-6" data-name="Path 857" transform="translate(-118.671 -114.001)"/>
            <path id="Path_858" d="M559.452 185.639a.786.786 0 0 0 .033.224.564.564 0 0 0 .1.19.492.492 0 0 0 .168.133.532.532 0 0 0 .237.049.512.512 0 0 0 .232-.049.474.474 0 0 0 .165-.133.56.56 0 0 0 .1-.19.785.785 0 0 0 .031-.224v-.258a.753.753 0 0 0-.033-.224.548.548 0 0 0-.1-.189.472.472 0 0 0-.166-.131.531.531 0 0 0-.234-.05.515.515 0 0 0-.232.05.507.507 0 0 0-.166.131.553.553 0 0 0-.1.189.782.782 0 0 0-.033.224zm-.458-.258a1.1 1.1 0 0 1 .068-.386.924.924 0 0 1 .2-.317.934.934 0 0 1 .312-.214 1.034 1.034 0 0 1 .413-.079 1.045 1.045 0 0 1 .416.079.946.946 0 0 1 .313.214.936.936 0 0 1 .2.317 1.1 1.1 0 0 1 .068.386v.258a1.1 1.1 0 0 1-.068.386.912.912 0 0 1-.506.529 1.006 1.006 0 0 1-.411.08 1.031 1.031 0 0 1-.416-.08.935.935 0 0 1-.313-.214.9.9 0 0 1-.2-.315 1.1 1.1 0 0 1-.068-.386zm-1.217.819l-.349-.218 2.359-3.775.348.219zm-.677-3.28a.748.748 0 0 0 .033.222.535.535 0 0 0 .1.189.489.489 0 0 0 .167.133.532.532 0 0 0 .237.049.516.516 0 0 0 .233-.049.483.483 0 0 0 .164-.132.567.567 0 0 0 .1-.189.79.79 0 0 0 .031-.224v-.256a.78.78 0 0 0-.033-.223.584.584 0 0 0-.1-.191.458.458 0 0 0-.166-.132.527.527 0 0 0-.233-.05.52.52 0 0 0-.236.05.474.474 0 0 0-.164.132.565.565 0 0 0-.1.191.754.754 0 0 0-.033.223zm-.458-.256a1.1 1.1 0 0 1 .068-.386.916.916 0 0 1 .507-.532 1.129 1.129 0 0 1 .83 0 .916.916 0 0 1 .31.216.938.938 0 0 1 .195.317 1.119 1.119 0 0 1 .068.386v.256a1.1 1.1 0 0 1-.066.383.915.915 0 0 1-.194.315.936.936 0 0 1-.31.214 1.012 1.012 0 0 1-.412.08 1.036 1.036 0 0 1-.416-.08.951.951 0 0 1-.313-.214.9.9 0 0 1-.2-.315 1.085 1.085 0 0 1-.068-.383z" class="cls-6" data-name="Path 858" transform="translate(-119.333 -113.989)"/>
            <path id="Path_859" d="M246.17 274.84h-21.3a.425.425 0 1 1 0-.849h21.3a.425.425 0 1 1 0 .849z" class="cls-12" data-name="Path 859" transform="translate(-69.224 -127.916)"/>
            <path id="Path_860" d="M240.578 280.73h-15.706a.425.425 0 1 1 0-.849h15.706a.425.425 0 1 1 0 .849z" class="cls-12" data-name="Path 860" transform="translate(-69.224 -128.804)"/>
            <path id="Path_861" d="M232.725 286.619h-7.853a.425.425 0 1 1 0-.849h7.853a.425.425 0 1 1 0 .849z" class="cls-12" data-name="Path 861" transform="translate(-69.224 -129.692)"/>
            <path id="Path_862" d="M350.09 248.016h-21.3a.425.425 0 1 1 0-.849h21.3a.425.425 0 1 1 0 .849z" class="cls-12" data-name="Path 862" transform="translate(-84.899 -123.869)"/>
            <path id="Path_863" d="M344.5 253.906h-15.708a.425.425 0 0 1 0-.849H344.5a.425.425 0 0 1 0 .849z" class="cls-12" data-name="Path 863" transform="translate(-84.899 -124.758)"/>
            <path id="Path_864" d="M336.645 259.8h-7.853a.425.425 0 1 1 0-.849h7.853a.425.425 0 0 1 0 .849z" class="cls-12" data-name="Path 864" transform="translate(-84.899 -125.646)"/>
            <path id="Path_865" d="M280.365 250h-15.706a.425.425 0 1 1 0-.849h15.706a.425.425 0 1 1 0 .849z" class="cls-12" data-name="Path 865" transform="translate(-75.225 -124.169)"/>
            <path id="Path_866" d="M272.512 255.892h-7.853a.425.425 0 1 1 0-.849h7.853a.425.425 0 1 1 0 .849z" class="cls-12" data-name="Path 866" transform="translate(-75.225 -125.057)"/>
            <path id="Path_867" d="M228.244 254.545a.253.253 0 0 1-.18-.075l-5.638-5.638a.255.255 0 0 1 .36-.36l5.638 5.638a.255.255 0 0 1-.18.435z" class="cls-12" data-name="Path 867" transform="translate(-68.908 -124.055)"/>
            <path id="Path_868" d="M226.289 256.5a.256.256 0 0 1-.18-.075l-5.638-5.638a.255.255 0 0 1 .36-.36l5.638 5.638a.255.255 0 0 1-.18.435z" class="cls-12" data-name="Path 868" transform="translate(-68.613 -124.35)"/>
            <path id="Path_869" d="M216.879 265.911a.254.254 0 0 1-.18-.074l-5.638-5.638a.254.254 0 1 1 .36-.359l5.638 5.638a.254.254 0 0 1-.18.434z" class="cls-12" data-name="Path 869" transform="translate(-67.193 -125.77)"/>
            <path id="Path_870" d="M214.951 267.839a.256.256 0 0 1-.18-.075l-5.638-5.638a.255.255 0 0 1 .36-.36l5.638 5.638a.255.255 0 0 1-.18.435z" class="cls-12" data-name="Path 870" transform="translate(-66.902 -126.06)"/>
            <path id="Path_871" d="M213.023 269.766a.255.255 0 0 1-.18-.074l-5.637-5.638a.254.254 0 0 1 .36-.359l5.637 5.638a.254.254 0 0 1-.18.434z" class="cls-12" data-name="Path 871" transform="translate(-66.612 -126.351)"/>
            <path id="Path_872" d="M211.1 271.694a.253.253 0 0 1-.18-.075l-5.638-5.638a.255.255 0 0 1 .36-.36l5.637 5.638a.255.255 0 0 1-.179.435z" class="cls-12" data-name="Path 872" transform="translate(-66.321 -126.642)"/>
            <path id="Path_873" d="M201.138 281.652a.25.25 0 0 1-.18-.075l-5.638-5.638a.255.255 0 0 1 .36-.36l5.638 5.638a.253.253 0 0 1 0 .36.249.249 0 0 1-.18.075z" class="cls-12" data-name="Path 873" transform="translate(-64.819 -128.144)"/>
            <path id="Path_874" d="M198.936 283.854a.249.249 0 0 1-.179-.075l-5.638-5.638a.255.255 0 1 1 .36-.36l5.637 5.638a.253.253 0 0 1 0 .36.25.25 0 0 1-.18.075z" class="cls-12" data-name="Path 874" transform="translate(-64.487 -128.476)"/>
            <path id="Path_875" d="M207.669 271.7a30.132 30.132 0 0 1-7.9-1.338l-.534-.148a26.3 26.3 0 0 0-5.22-1.073 8.319 8.319 0 0 0-5.48 1.36.254.254 0 1 1-.3-.408 8.821 8.821 0 0 1 5.816-1.46 26.62 26.62 0 0 1 5.323 1.09l.532.148a28.142 28.142 0 0 0 8.368 1.308 8.54 8.54 0 0 0 4.6-1.318c3.78-2.627 3.349-7.895 2.322-11.851a81.204 81.204 0 0 0-.58-2.078 33.712 33.712 0 0 1-1.208-5.233 10.113 10.113 0 0 1 1.578-7.338.254.254 0 1 1 .406.307 9.617 9.617 0 0 0-1.478 6.971 33.158 33.158 0 0 0 1.192 5.153c.2.7.4 1.392.582 2.091 1.069 4.113 1.5 9.6-2.525 12.4a9.025 9.025 0 0 1-4.867 1.408q-.314.009-.627.009z" class="cls-12" data-name="Path 875" transform="translate(-63.746 -123.279)"/>
            <path id="Path_876" d="M202.849 287.9a.255.255 0 0 1-.205-.406 8.317 8.317 0 0 0 1.36-5.48 24.055 24.055 0 0 0-.957-4.8.255.255 0 0 1 .177-.313.252.252 0 0 1 .313.177 24.543 24.543 0 0 1 .976 4.9 8.824 8.824 0 0 1-1.46 5.816.254.254 0 0 1-.204.106z" class="cls-12" data-name="Path 876" transform="translate(-65.927 -128.353)"/>
            <path id="Path_877" d="M202.611 272.586a.257.257 0 0 1-.247-.189 26.65 26.65 0 0 1-1.111-7.727 9.029 9.029 0 0 1 1.409-4.868c2.8-4.021 8.284-3.592 12.4-2.524.637.166 1.269.346 1.9.528a.255.255 0 0 1-.141.49 73.502 73.502 0 0 0-1.89-.525c-3.958-1.028-9.224-1.46-11.851 2.322a8.54 8.54 0 0 0-1.318 4.6 26.149 26.149 0 0 0 1.1 7.576.255.255 0 0 1-.246.32z" class="cls-12" data-name="Path 877" transform="translate(-65.723 -125.284)"/>
            <path id="Path_878" d="M227.008 259.834a13.96 13.96 0 0 1-1.67-.1 24.359 24.359 0 0 1-3.383-.689.255.255 0 1 1 .132-.493 23.726 23.726 0 0 0 3.313.675 9.613 9.613 0 0 0 6.971-1.478.255.255 0 1 1 .307.407 9.336 9.336 0 0 1-5.67 1.678z" class="cls-12" data-name="Path 878" transform="translate(-68.819 -125.458)"/>
            <path id="Path_879" d="M270.39 281.377h10.018l5.007-8.675-5.007-8.674H270.39l-5.008 8.674zm10.164.509h-10.311a.255.255 0 0 1-.221-.127l-5.155-8.93a.252.252 0 0 1 0-.254l5.155-8.93a.255.255 0 0 1 .221-.127h10.311a.253.253 0 0 1 .22.127l5.156 8.93a.256.256 0 0 1 0 .254l-5.156 8.93a.253.253 0 0 1-.22.127z" class="cls-12" data-name="Path 879" transform="translate(-75.315 -126.336)"/>
            <path id="Path_880" d="M347.065 277.21h10.017l5.007-8.674-5.007-8.675h-10.017l-5.008 8.675zm10.164.509h-10.31a.255.255 0 0 1-.221-.127l-5.155-8.93a.251.251 0 0 1 0-.254l5.155-8.93a.254.254 0 0 1 .221-.127h10.31a.253.253 0 0 1 .22.127l5.156 8.93a.256.256 0 0 1 0 .254l-5.156 8.93a.254.254 0 0 1-.221.126z" class="cls-12" data-name="Path 880" transform="translate(-86.881 -125.707)"/>
            <path id="Path_881" d="M288.816 270.862h10.018l5.007-8.675-5.007-8.675h-10.018l-5.008 8.675zm10.164.509h-10.31a.254.254 0 0 1-.221-.127l-5.155-8.929a.253.253 0 0 1 0-.255l5.155-8.93a.256.256 0 0 1 .221-.127h10.31a.255.255 0 0 1 .221.127l5.156 8.93a.257.257 0 0 1 0 .255l-5.156 8.929a.253.253 0 0 1-.222.126z" class="cls-12" data-name="Path 881" transform="translate(-78.095 -124.749)"/>
            <path id="Path_882" d="M316.233 232.551H190.47a3.442 3.442 0 0 1 0-6.884h125.763a3.442 3.442 0 0 1 0 6.884z" class="cls-13" data-name="Path 882" transform="translate(-63.579 -120.626)"/>
            <path id="Path_883" d="M618.639 299.276H431.4a3.4 3.4 0 0 1-3.4-3.4V218.59a3.4 3.4 0 0 1 3.4-3.4h187.239a3.4 3.4 0 0 1 3.4 3.4v77.29a3.4 3.4 0 0 1-3.4 3.396z" class="cls-9" data-name="Path 883" transform="translate(-99.928 -119.046)"/>
            <path id="Path_884" d="M565.837 232.551H440.075a3.442 3.442 0 0 1 0-6.884h125.762a3.442 3.442 0 0 1 0 6.884z" class="cls-2" data-name="Path 884" transform="translate(-101.23 -120.626)"/>
            <path id="Path_885" d="M633.435 232.551h-32.11a3.442 3.442 0 0 1 0-6.884h32.111a3.442 3.442 0 0 1 0 6.884z" class="cls-2" data-name="Path 885" transform="translate(-125.553 -120.626)"/>
            <path id="Path_886" d="M492.634 247.239h-30.218a1.517 1.517 0 0 1-1.517-1.517v-.422a1.517 1.517 0 0 1 1.517-1.517h30.217a1.516 1.516 0 0 1 1.516 1.517v.425a1.516 1.516 0 0 1-1.515 1.514z" class="cls-2" data-name="Path 886" transform="translate(-104.891 -123.358)"/>
            <path id="Path_887" d="M483.205 254.22h-21.3a.425.425 0 1 1 0-.849h21.3a.425.425 0 0 1 0 .849z" class="cls-2" data-name="Path 887" transform="translate(-104.978 -124.805)"/>
            <path id="Path_888" d="M477.613 260.109h-15.706a.425.425 0 1 1 0-.849h15.706a.425.425 0 1 1 0 .849z" class="cls-2" data-name="Path 888" transform="translate(-104.978 -125.693)"/>
            <path id="Path_889" d="M469.759 266h-7.852a.425.425 0 1 1 0-.849h7.852a.425.425 0 1 1 0 .849z" class="cls-2" data-name="Path 889" transform="translate(-104.978 -126.582)"/>
            <path id="Path_890" d="M441.353 244.475a1.275 1.275 0 0 0-1.274 1.274v10.006a1.275 1.275 0 0 0 1.274 1.274h10.006a1.275 1.275 0 0 0 1.274-1.274v-10.006a1.275 1.275 0 0 0-1.274-1.274zm10.006 13.4h-10.006a2.125 2.125 0 0 1-2.123-2.123v-10.003a2.126 2.126 0 0 1 2.123-2.123h10.006a2.125 2.125 0 0 1 2.123 2.123v10.006a2.125 2.125 0 0 1-2.123 2.122z" class="cls-2" data-name="Path 890" transform="translate(-101.622 -123.335)"/>
            <path id="Path_891" d="M449.236 254.056a.42.42 0 0 1-.3-.125l-4.108-4.107a.425.425 0 0 1 .6-.6l4.108 4.107a.425.425 0 0 1-.3.725z" class="cls-7" data-name="Path 891" transform="translate(-102.448 -124.161)"/>
            <path id="Path_892" d="M445.128 254.056a.425.425 0 0 1-.3-.725l4.108-4.107a.425.425 0 0 1 .6.6l-4.108 4.107a.424.424 0 0 1-.3.125z" class="cls-7" data-name="Path 892" transform="translate(-102.448 -124.161)"/>
            <path id="Path_893" d="M564.131 281.691h-30.217a1.516 1.516 0 0 1-1.517-1.517v-.425a1.516 1.516 0 0 1 1.517-1.517h30.217a1.517 1.517 0 0 1 1.517 1.517v.425a1.517 1.517 0 0 1-1.517 1.517z" class="cls-2" data-name="Path 893" transform="translate(-115.675 -128.555)"/>
            <path id="Path_894" d="M554.7 288.672h-21.3a.425.425 0 1 1 0-.849h21.3a.425.425 0 0 1 0 .849z" class="cls-2" data-name="Path 894" transform="translate(-115.763 -130.002)"/>
            <path id="Path_895" d="M549.11 294.561H533.4a.425.425 0 1 1 0-.849h15.71a.425.425 0 0 1 0 .849z" class="cls-2" data-name="Path 895" transform="translate(-115.763 -130.89)"/>
            <path id="Path_896" d="M541.258 300.451H533.4a.425.425 0 1 1 0-.849h7.854a.425.425 0 0 1 0 .849z" class="cls-2" data-name="Path 896" transform="translate(-115.763 -131.779)"/>
            <path id="Path_897" d="M512.852 278.928a1.275 1.275 0 0 0-1.274 1.274v10a1.275 1.275 0 0 0 1.274 1.274h10a1.275 1.275 0 0 0 1.274-1.274v-10a1.275 1.275 0 0 0-1.274-1.274zm10 13.4h-10a2.125 2.125 0 0 1-2.123-2.123v-10a2.125 2.125 0 0 1 2.123-2.123h10a2.125 2.125 0 0 1 2.123 2.123v10a2.125 2.125 0 0 1-2.118 2.125z" class="cls-2" data-name="Path 897" transform="translate(-112.407 -128.532)"/>
            <path id="Path_898" d="M520.733 288.508a.42.42 0 0 1-.3-.124l-4.107-4.108a.425.425 0 0 1 .6-.6l4.107 4.108a.424.424 0 0 1-.3.724z" class="cls-7" data-name="Path 898" transform="translate(-113.232 -129.358)"/>
            <path id="Path_899" d="M516.625 288.508a.424.424 0 0 1-.3-.724l4.107-4.108a.425.425 0 0 1 .6.6l-4.107 4.108a.43.43 0 0 1-.3.124z" class="cls-7" data-name="Path 899" transform="translate(-113.232 -129.358)"/>
            <path id="Path_900" d="M636.381 280.847h-30.217a1.516 1.516 0 0 1-1.517-1.516v-.431a1.517 1.517 0 0 1 1.517-1.517h30.217a1.517 1.517 0 0 1 1.519 1.517v.426a1.516 1.516 0 0 1-1.519 1.521z" class="cls-2" data-name="Path 900" transform="translate(-126.574 -128.428)"/>
            <path id="Path_901" d="M626.953 287.828h-21.3a.425.425 0 0 1 0-.849h21.3a.425.425 0 0 1 0 .849z" class="cls-2" data-name="Path 901" transform="translate(-126.662 -129.875)"/>
            <path id="Path_902" d="M621.36 293.718h-15.706a.425.425 0 0 1 0-.849h15.706a.425.425 0 1 1 0 .849z" class="cls-2" data-name="Path 902" transform="translate(-126.662 -130.763)"/>
            <path id="Path_903" d="M613.508 299.607h-7.854a.425.425 0 0 1 0-.849h7.854a.425.425 0 0 1 0 .849z" class="cls-2" data-name="Path 903" transform="translate(-126.662 -131.651)"/>
            <path id="Path_904" d="M585.1 278.084a1.275 1.275 0 0 0-1.274 1.274v10.006a1.275 1.275 0 0 0 1.274 1.274h10a1.275 1.275 0 0 0 1.274-1.274v-10.006a1.275 1.275 0 0 0-1.274-1.274zm10 13.4h-10a2.125 2.125 0 0 1-2.123-2.123v-10.003a2.125 2.125 0 0 1 2.123-2.123h10a2.125 2.125 0 0 1 2.123 2.123v10.006a2.125 2.125 0 0 1-2.116 2.122z" class="cls-2" data-name="Path 904" transform="translate(-123.305 -128.405)"/>
            <path id="Path_905" d="M592.983 287.665a.419.419 0 0 1-.3-.124l-4.107-4.108a.425.425 0 0 1 .6-.6l4.107 4.108a.424.424 0 0 1-.3.724z" class="cls-7" data-name="Path 905" transform="translate(-124.131 -129.23)"/>
            <path id="Path_906" d="M588.876 287.665a.424.424 0 0 1-.3-.724l4.107-4.108a.425.425 0 0 1 .6.6l-4.107 4.108a.423.423 0 0 1-.3.124z" class="cls-7" data-name="Path 906" transform="translate(-124.131 -129.23)"/>
            <path id="Path_907" d="M564.131 247.239h-30.217a1.516 1.516 0 0 1-1.517-1.517v-.422a1.516 1.516 0 0 1 1.517-1.517h30.217a1.517 1.517 0 0 1 1.517 1.517v.425a1.517 1.517 0 0 1-1.517 1.514z" class="cls-2" data-name="Path 907" transform="translate(-115.675 -123.358)"/>
            <path id="Path_908" d="M554.7 254.22h-21.3a.425.425 0 1 1 0-.849h21.3a.425.425 0 0 1 0 .849z" class="cls-2" data-name="Path 908" transform="translate(-115.763 -124.805)"/>
            <path id="Path_909" d="M549.11 260.109H533.4a.425.425 0 1 1 0-.849h15.71a.425.425 0 0 1 0 .849z" class="cls-2" data-name="Path 909" transform="translate(-115.763 -125.693)"/>
            <path id="Path_910" d="M541.258 266H533.4a.425.425 0 1 1 0-.849h7.854a.425.425 0 0 1 0 .849z" class="cls-2" data-name="Path 910" transform="translate(-115.763 -126.582)"/>
            <path id="Path_911" d="M512.852 244.475a1.275 1.275 0 0 0-1.274 1.274v10.006a1.275 1.275 0 0 0 1.274 1.274h10a1.275 1.275 0 0 0 1.274-1.274v-10.006a1.275 1.275 0 0 0-1.274-1.274zm10 13.4h-10a2.125 2.125 0 0 1-2.123-2.123v-10.003a2.125 2.125 0 0 1 2.123-2.123h10a2.125 2.125 0 0 1 2.123 2.123v10.006a2.125 2.125 0 0 1-2.118 2.122z" class="cls-2" data-name="Path 911" transform="translate(-112.407 -123.335)"/>
            <path id="Path_912" d="M518.266 254.056a.425.425 0 0 1-.332-.689l3.259-4.107a.424.424 0 1 1 .664.527L518.6 253.9a.418.418 0 0 1-.334.156z" class="cls-14" data-name="Path 912" transform="translate(-113.48 -124.161)"/>
            <path id="Path_913" d="M517.921 254.291a.421.421 0 0 1-.347-.183l-1.939-2.787a.424.424 0 1 1 .7-.485l1.939 2.787a.425.425 0 0 1-.349.667z" class="cls-14" data-name="Path 913" transform="translate(-113.136 -124.395)"/>
            <path id="Path_914" d="M636.381 247.239h-30.217a1.517 1.517 0 0 1-1.517-1.517v-.422a1.517 1.517 0 0 1 1.517-1.517h30.217a1.517 1.517 0 0 1 1.519 1.517v.425a1.517 1.517 0 0 1-1.519 1.514z" class="cls-2" data-name="Path 914" transform="translate(-126.574 -123.358)"/>
            <path id="Path_915" d="M626.953 254.22h-21.3a.425.425 0 0 1 0-.849h21.3a.425.425 0 0 1 0 .849z" class="cls-2" data-name="Path 915" transform="translate(-126.662 -124.805)"/>
            <path id="Path_916" d="M621.36 260.109h-15.706a.425.425 0 0 1 0-.849h15.706a.425.425 0 1 1 0 .849z" class="cls-2" data-name="Path 916" transform="translate(-126.662 -125.693)"/>
            <path id="Path_917" d="M613.508 266h-7.854a.425.425 0 0 1 0-.849h7.854a.425.425 0 0 1 0 .849z" class="cls-2" data-name="Path 917" transform="translate(-126.662 -126.582)"/>
            <path id="Path_918" d="M585.1 244.475a1.275 1.275 0 0 0-1.274 1.274v10.006a1.275 1.275 0 0 0 1.274 1.274h10a1.275 1.275 0 0 0 1.274-1.274v-10.006a1.275 1.275 0 0 0-1.274-1.274zm10 13.4h-10a2.125 2.125 0 0 1-2.123-2.123v-10.003a2.125 2.125 0 0 1 2.123-2.123h10a2.125 2.125 0 0 1 2.123 2.123v10.006a2.125 2.125 0 0 1-2.116 2.122z" class="cls-2" data-name="Path 918" transform="translate(-123.305 -123.335)"/>
            <path id="Path_919" d="M590.517 254.056a.425.425 0 0 1-.333-.689l3.259-4.107a.424.424 0 1 1 .665.527l-3.259 4.107a.421.421 0 0 1-.332.162z" class="cls-14" data-name="Path 919" transform="translate(-124.378 -124.161)"/>
            <path id="Path_920" d="M590.172 254.291a.421.421 0 0 1-.348-.183l-1.939-2.787a.425.425 0 0 1 .7-.485l1.938 2.787a.425.425 0 0 1-.348.667z" class="cls-14" data-name="Path 920" transform="translate(-124.034 -124.395)"/>
            <path id="Path_921" d="M492.634 282.567h-30.218a1.517 1.517 0 0 1-1.517-1.517v-.425a1.517 1.517 0 0 1 1.517-1.517h30.217a1.516 1.516 0 0 1 1.516 1.517v.425a1.516 1.516 0 0 1-1.515 1.517z" class="cls-2" data-name="Path 921" transform="translate(-104.891 -128.687)"/>
            <path id="Path_922" d="M483.205 289.549h-21.3a.425.425 0 1 1 0-.849h21.3a.425.425 0 0 1 0 .849z" class="cls-2" data-name="Path 922" transform="translate(-104.978 -130.134)"/>
            <path id="Path_923" d="M477.613 295.438h-15.706a.425.425 0 1 1 0-.849h15.706a.425.425 0 0 1 0 .849z" class="cls-2" data-name="Path 923" transform="translate(-104.978 -131.023)"/>
            <path id="Path_924" d="M469.759 301.328h-7.852a.425.425 0 1 1 0-.849h7.852a.425.425 0 1 1 0 .849z" class="cls-12" data-name="Path 924" transform="translate(-104.978 -131.911)"/>
            <path id="Path_925" d="M441.353 279.805a1.275 1.275 0 0 0-1.274 1.274v10a1.275 1.275 0 0 0 1.274 1.274h10.006a1.275 1.275 0 0 0 1.274-1.274v-10a1.275 1.275 0 0 0-1.274-1.274zm10.006 13.4h-10.006a2.126 2.126 0 0 1-2.123-2.123v-10a2.125 2.125 0 0 1 2.123-2.123h10.006a2.125 2.125 0 0 1 2.123 2.123v10a2.125 2.125 0 0 1-2.123 2.125z" class="cls-12" data-name="Path 925" transform="translate(-101.622 -128.664)"/>
            <path id="Path_926" d="M446.77 289.385a.425.425 0 0 1-.333-.689l3.258-4.108a.424.424 0 0 1 .665.527l-3.258 4.108a.421.421 0 0 1-.332.162z" class="cls-12" data-name="Path 926" transform="translate(-102.695 -129.49)"/>
            <path id="Path_927" d="M446.425 289.62a.421.421 0 0 1-.348-.183l-1.939-2.787a.425.425 0 1 1 .7-.486l1.939 2.788a.425.425 0 0 1-.348.667z" class="cls-12" data-name="Path 927" transform="translate(-102.351 -129.724)"/>
            <path id="Path_928" d="M199.131 398.659h-.912a5.75 5.75 0 0 1-5.749-5.751V356.23a5.749 5.749 0 0 1 5.749-5.75h.912a5.75 5.75 0 0 1 5.75 5.75v36.679a5.75 5.75 0 0 1-5.75 5.75z" class="cls-2" data-name="Path 928" transform="translate(-64.4 -139.453)"/>
            <path id="Path_929" d="M199.131 403.08h-.912a5.75 5.75 0 0 1-5.749-5.751v-11.787a5.749 5.749 0 0 1 5.749-5.75h.912a5.749 5.749 0 0 1 5.75 5.75v11.788a5.75 5.75 0 0 1-5.75 5.75z" class="cls-12" data-name="Path 929" transform="translate(-64.4 -143.875)"/>
            <path id="Path_930" d="M224.874 398.659h-.913a5.75 5.75 0 0 1-5.749-5.751V356.23a5.749 5.749 0 0 1 5.749-5.75h.913a5.749 5.749 0 0 1 5.749 5.75v36.679a5.75 5.75 0 0 1-5.749 5.75z" class="cls-2" data-name="Path 930" transform="translate(-68.283 -139.453)"/>
            <path id="Path_931" d="M224.418 399.867a6.206 6.206 0 0 1-6.206-6.206v-28.966a6.205 6.205 0 1 1 12.41 0v28.966a6.206 6.206 0 0 1-6.204 6.206z" class="cls-12" data-name="Path 931" transform="translate(-68.283 -140.661)"/>
            <path id="Path_932" d="M250.616 398.659h-.916a5.75 5.75 0 0 1-5.75-5.751V356.23a5.75 5.75 0 0 1 5.75-5.75h.912a5.75 5.75 0 0 1 5.749 5.75v36.679a5.75 5.75 0 0 1-5.745 5.75z" class="cls-2" data-name="Path 932" transform="translate(-72.166 -139.453)"/>
            <path id="Path_933" d="M250.16 404.366a6.206 6.206 0 0 1-6.206-6.206v-3.64a6.205 6.205 0 1 1 12.41 0v3.64a6.206 6.206 0 0 1-6.204 6.206z" class="cls-12" data-name="Path 933" transform="translate(-72.166 -145.16)"/>
            <path id="Path_934" d="M276.358 398.659h-.912a5.75 5.75 0 0 1-5.75-5.751V356.23a5.75 5.75 0 0 1 5.75-5.75h.912a5.75 5.75 0 0 1 5.75 5.75v36.679a5.75 5.75 0 0 1-5.75 5.75z" class="cls-2" data-name="Path 934" transform="translate(-76.049 -139.453)"/>
            <path id="Path_935" d="M275.9 401.428a6.206 6.206 0 0 1-6.206-6.206v-20.18a6.206 6.206 0 0 1 12.411 0v20.18a6.206 6.206 0 0 1-6.205 6.206z" class="cls-12" data-name="Path 935" transform="translate(-76.049 -142.222)"/>
            <path id="Path_936" d="M302.1 398.659h-.911a5.751 5.751 0 0 1-5.75-5.751V356.23a5.75 5.75 0 0 1 5.75-5.75h.911a5.75 5.75 0 0 1 5.75 5.75v36.679a5.75 5.75 0 0 1-5.75 5.75z" class="cls-2" data-name="Path 936" transform="translate(-79.932 -139.453)"/>
            <path id="Path_937" d="M302.1 403.08h-.911a5.751 5.751 0 0 1-5.75-5.751v-11.787a5.75 5.75 0 0 1 5.75-5.75h.911a5.75 5.75 0 0 1 5.75 5.75v11.788a5.75 5.75 0 0 1-5.75 5.75z" class="cls-12" data-name="Path 937" transform="translate(-79.932 -143.875)"/>
            <path id="Path_938" d="M327.842 398.659h-.911a5.75 5.75 0 0 1-5.749-5.751V356.23a5.75 5.75 0 0 1 5.749-5.75h.911a5.75 5.75 0 0 1 5.75 5.75v36.679a5.75 5.75 0 0 1-5.75 5.75z" class="cls-2" data-name="Path 938" transform="translate(-83.815 -139.453)"/>
            <path id="Path_939" d="M327.842 403.08h-.911a5.75 5.75 0 0 1-5.749-5.751v-11.787a5.749 5.749 0 0 1 5.749-5.75h.911a5.749 5.749 0 0 1 5.75 5.75v11.788a5.75 5.75 0 0 1-5.75 5.75z" class="cls-12" data-name="Path 939" transform="translate(-83.815 -143.875)"/>
            <path id="Path_940" d="M353.585 398.659h-.912a5.75 5.75 0 0 1-5.749-5.751V356.23a5.749 5.749 0 0 1 5.749-5.75h.912a5.75 5.75 0 0 1 5.75 5.75v36.679a5.75 5.75 0 0 1-5.75 5.75z" class="cls-2" data-name="Path 940" transform="translate(-87.698 -139.453)"/>
            <path id="Path_941" d="M353.129 401.514a6.206 6.206 0 0 1-6.2-6.206v-19.69a6.205 6.205 0 1 1 12.41 0v19.691a6.206 6.206 0 0 1-6.21 6.205z" class="cls-12" data-name="Path 941" transform="translate(-87.698 -142.309)"/>
            <path id="Path_942" d="M379.328 398.659h-.912a5.75 5.75 0 0 1-5.75-5.751V356.23a5.75 5.75 0 0 1 5.75-5.75h.912a5.75 5.75 0 0 1 5.749 5.75v36.679a5.75 5.75 0 0 1-5.749 5.75z" class="cls-2" data-name="Path 942" transform="translate(-91.581 -139.453)"/>
            <path id="Path_943" d="M381.694 406.015h-5.646a3.383 3.383 0 0 1 0-6.765h5.646a3.383 3.383 0 0 1 0 6.765z" class="cls-12" data-name="Path 943" transform="translate(-91.581 -146.81)"/>
            <path id="Path_944" d="M491.778 400.385s6.57-11.505 15.072-11.505 16.747 5.926 16.747 5.926 7.086 3.478 10.435-.773 5.41-14.686 12.367-14.428 8.5 11.594 13.269 11.852c4.509.244 10.287-4.7 18.644-15.165a7.949 7.949 0 0 1 5.482-2.991l.092-.008v27.092z" class="cls-2" data-name="Path 944" transform="translate(-109.548 -142.894)"/>
            <path id="Path_945" d="M507.969 355.654a7.123 7.123 0 1 1 7.122-7.123 7.13 7.13 0 0 1-7.122 7.123zm0-20.117a12.994 12.994 0 1 0 12.995 12.994 12.993 12.993 0 0 0-12.995-12.994z" class="cls-2" data-name="Path 945" transform="translate(-110.031 -137.199)"/>
            <path id="Path_946" d="M507.545 358.1a2.9 2.9 0 0 0-1.91-2.748 7.111 7.111 0 0 1 0-13.441 2.9 2.9 0 0 0 1.91-2.749 2.938 2.938 0 0 0-3.886-2.789 12.994 12.994 0 0 0 0 24.517 2.938 2.938 0 0 0 3.886-2.79z" class="cls-12" data-name="Path 946" transform="translate(-110.031 -137.301)"/>
            <path id="Path_947" d="M543.871 354.995a7.122 7.122 0 1 1 7.122-7.122 7.13 7.13 0 0 1-7.122 7.122zm0-20.116a12.994 12.994 0 1 0 12.994 12.994 12.993 12.993 0 0 0-12.994-12.994z" class="cls-2" data-name="Path 947" transform="translate(-115.446 -137.1)"/>
            <path id="Path_948" d="M537.3 345.528a7.148 7.148 0 0 1 4.314-4.263 2.923 2.923 0 0 0 1.945-2.756v-.009a2.929 2.929 0 0 0-3.859-2.79 13.012 13.012 0 0 0-7.922 7.839 2.934 2.934 0 0 0 5.521 1.983z" class="cls-7" data-name="Path 948" transform="translate(-115.556 -137.2)"/>
            <path id="Path_949" d="M580.219 355.654a7.123 7.123 0 1 1 7.123-7.123 7.13 7.13 0 0 1-7.123 7.123zm0-20.117a12.994 12.994 0 1 0 12.995 12.994 12.993 12.993 0 0 0-12.995-12.994z" class="cls-2" data-name="Path 949" transform="translate(-120.929 -137.199)"/>
            <path id="Path_950" d="M145.056 195.192v-58.97l-13.433 6.923c-1.373 1.737-.635 12.416-.635 12.416s-6.551-.188-10.666-7.139c0 0-14.893 4-16.958 18.38a22.612 22.612 0 0 0 6.8 19.279c8.314 8.112 25.317 23.8 38.852 30.432v-21.321z" class="cls-2" data-name="Path 950" transform="translate(-50.927 -107.134)"/>
            <path id="Path_951" d="M143.1 198.907a.423.423 0 0 1-.287-.112l-19.824-18.16a.425.425 0 1 1 .574-.627l19.824 18.161a.425.425 0 0 1-.287.738z" class="cls-15" data-name="Path 951" transform="translate(-53.898 -113.722)"/>
            <path id="Path_952" d="M141.665 117.419a20.977 20.977 0 0 1 .508 4.817 14.35 14.35 0 0 0 .756 5.093 10.244 10.244 0 0 0 .782 1.832 2.133 2.133 0 0 1-1.667 3.105s1.969 9.7-3.484 9.621a12.505 12.505 0 0 1-4.016-.834l-.984 12.121s-9.545-2.121-10.834-6.893c0 0 3.257-10 1.819-15.151 0 0-5.683-2.121-3.561-5.075s5.606-.228 5.606-.228.616-5.193 3.571-4.943 10.595 1.61 11.504-3.465z" class="cls-16" data-name="Path 952" transform="translate(-53.545 -104.298)"/>
            <path id="Path_953" d="M126.654 109.18c-4.442.935-8.019 4.259-10.346 10.276 0 0-3.526 1.674-3.678 4.855s.27 11.126 11.07 9.689a9.847 9.847 0 0 0-.342-4.167s-3.062-.786-2.133-3.665 4.178-1.638 4.178-1.638 1.124-3.289 2.628-4.052c2.115-1.073 7.037.585 9.121-.685a7.523 7.523 0 0 0 3.8-.408c1.576-.763 2.333-5.4.97-6.763a13.359 13.359 0 0 0-3.048-1.8 19.211 19.211 0 0 0-12.22-1.642z" class="cls-5" data-name="Path 953" transform="translate(-52.354 -102.999)"/>
            <path id="Path_954" d="M143.311 127.993c0 .512-.238.927-.531.927s-.531-.415-.531-.927.238-.927.531-.927.531.415.531.927z" class="cls-5" data-name="Path 954" transform="translate(-56.825 -105.753)"/>
            <path id="Path_955" d="M145.7 140.322c-2.392 0-2.967-1.578-2.99-1.645a.255.255 0 0 1 .481-.168c.022.059.5 1.3 2.509 1.3a.254.254 0 1 1 0 .509z" class="cls-5" data-name="Path 955" transform="translate(-56.893 -107.453)"/>
            <path id="Path_956" d="M140.082 126.118a.243.243 0 0 1-.1-.022.252.252 0 0 1-.13-.335 2.589 2.589 0 0 1 2.694-1.355.254.254 0 0 1 .23.277.251.251 0 0 1-.278.23 2.069 2.069 0 0 0-2.182 1.055.256.256 0 0 1-.234.15z" class="cls-5" data-name="Path 956" transform="translate(-56.459 -105.349)"/>
            <path id="Path_957" d="M127.953 155.8l20.693 25.486V167.7l-13.428-15.954s.139 5.635-7.265 4.054z" class="cls-4" data-name="Path 957" transform="translate(-54.668 -109.477)"/>
            <path id="Path_958" d="M126.967 174.941a.425.425 0 0 1-.239-.775l6.121-4.175a.425.425 0 0 1 .479.7l-6.121 4.175a.428.428 0 0 1-.24.075z" class="cls-15" data-name="Path 958" transform="translate(-54.455 -112.217)"/>
            <path id="Path_959" d="M123.34 296.577l7.034-1.529 3.687 3.3 3.346 36.6-2.445 13.734-12.8 2.857-2.54-24.927z" class="cls-4" data-name="Path 959" transform="translate(-53.412 -131.092)"/>
            <path id="Path_960" d="M55.911 470.059l1.286-5.692 49.227-31.861-13.159-6.068-38.823 29.484-2.937.678v10.7a5.442 5.442 0 0 0 4.406 2.759z" class="cls-16" data-name="Path 960" transform="translate(-43.137 -150.911)"/>
            <path id="Path_961" d="M112.881 489.51l2.525-55.926h13.357l-7.526 52.83 4.851 4.434s-3.611 3.177-7.657 2.173a9.067 9.067 0 0 1-5.55-3.511z" class="cls-16" data-name="Path 961" transform="translate(-52.395 -151.989)"/>
            <path id="Path_962" d="M51.555 461.592l-2.835 1.472a1.58 1.58 0 0 0-.845 1.582c.408 3.54 1.88 14.683 4.489 17.032.886.8 1.639 1.416 2.266 1.9a1.247 1.247 0 0 0 1.994-1.156l-.909-8.618s-3.6-.734-4.16-2.249z" class="cls-4" data-name="Path 962" transform="translate(-42.588 -156.214)"/>
            <path id="Path_963" d="M112.884 498.2l-.167 3.413a1.764 1.764 0 0 0 1.483 1.832c4.058.647 14.851 2.221 18.051 1.217A1.3 1.3 0 0 0 132 502.4l-7.175-2.986s-3.083 2.653-5.554 2.141-4.671-1.255-6.387-3.355z" class="cls-4" data-name="Path 963" transform="translate(-52.37 -161.736)"/>
            <path id="Path_964" d="M122.373 358.745s5.191-.41 7.55-1.635l4.291-1.423-3.921 64.836a36.234 36.234 0 0 1-34.526-6.323 9.184 9.184 0 0 0 3.98-8.475l-2.538-26.372 3.059-22.653z" class="cls-5" data-name="Path 964" transform="translate(-49.813 -140.239)"/>
            <path id="Path_965" d="M128.261 248.434s2.007 5.59 1.863 9.46l1.394 1.859a1.289 1.289 0 0 1-.235 1.787l-1.016.8s1.577 8.17-1.29 8.743-4.73.86-4.73.86-1.29 4.013 0 6.163l4.182 10.044-6.4 1.393-11.108-11.866 4.73-9.747s-3.832-3.77-3.129-8c.939-5.667 7.287-12.153 15.739-11.496z" class="cls-16" data-name="Path 965" transform="translate(-52.099 -124.053)"/>
            <path id="Path_966" d="M115.215 257.4s10.808-2.182 12.766-7.512c0 0-.766-9.342-9.509-8.053S103.71 246.712 104 256.314s10.6 10.606 10.6 10.606v-5.447s-2.294-.573-1.865-2.58a1.965 1.965 0 0 1 2.48-1.493z" class="cls-9" data-name="Path 966" transform="translate(-51.053 -123.047)"/>
            <path id="Path_967" d="M103.706 251.517s-7.693-5.655-2.247-10.815 9.218 2.639 9.218 2.639-5.297 2.797-6.971 8.176z" class="cls-9" data-name="Path 967" transform="translate(-50.378 -122.628)"/>
            <path id="Path_968" d="M139.483 310.5l28.192-9.99v7.732l-25.131 11.136z" class="cls-2" data-name="Path 968" transform="translate(-56.407 -131.916)"/>
            <path id="Path_969" d="M108.577 282.8s-7.308 1.7-9.641 12.388a26.691 26.691 0 0 0 .252 11.988L103.4 324.5s-8.029 35.789-7.62 45.829 2.456 24.314 2.456 24.314 14.111 5.709 21.732 1.631c0 0 5.886-73.406-.229-101.544z" class="cls-2" data-name="Path 969" transform="translate(-49.813 -129.245)"/>
            <path id="Path_970" d="M126.616 283.381a34.559 34.559 0 0 1 9.151 7.439 11.6 11.6 0 0 1 2.594 7.424v5.115l2.04 14.526-4.384 76.846h-3.465s4.975-87.949-1.754-101.305z" class="cls-2" data-name="Path 970" transform="translate(-54.466 -129.332)"/>
            <path id="Path_971" d="M134 312.835l-17.414-20.369-13.452 11.4s19.728 22.937 28.755 24.113c6.251.814 23.314-4.835 33.223-8.389a167.156 167.156 0 0 0-2.24-7.167z" class="cls-2" data-name="Path 971" transform="translate(-50.925 -130.702)"/>
            <path id="Path_972" d="M200.259 313.476a1.045 1.045 0 0 0-.693-.145l-9.487 1.323.784-.394a.8.8 0 0 0 .262-1.254 1.941 1.941 0 0 0-2.147-.425l-7.961 3.4-7.332.105c.745 2.2 1.421 4.382 2.052 6.565 4.032-1.445 6.775-2.514 6.775-2.514l3.952-.171c4.322-.075 10.749-3.124 13.725-4.662a1.047 1.047 0 0 0 .07-1.828z" class="cls-16" data-name="Path 972" transform="translate(-61.567 -133.713)"/>
            <path id="Path_973" d="M173.686 316.726l2.3-.033 2.162 5.725-2.407.873z" class="cls-4" data-name="Path 973" transform="translate(-61.567 -134.357)"/>
            <path id="Path_974" d="M131 259.874c0 .439-.2.8-.449.8s-.451-.357-.451-.8.2-.8.451-.8.449.36.449.8z" class="cls-5" data-name="Path 974" transform="translate(-54.991 -125.666)"/>
            <path id="Path_975" d="M127.917 258.771a1.918 1.918 0 0 1 .3-.711 2.394 2.394 0 0 1 .515-.577 2.1 2.1 0 0 1 .7-.37 1.358 1.358 0 0 1 .789 0 7.085 7.085 0 0 0-.625.36c-.183.138-.366.265-.542.41l-.543.439c-.188.147-.375.301-.594.449z" class="cls-9" data-name="Path 975" transform="translate(-54.663 -125.361)"/>
            <path id="Path_976" d="M130.1 268.444a8.369 8.369 0 0 0 3.5 1.373v-2.362z" class="cls-2" data-name="Path 976" transform="translate(-54.991 -126.93)"/>
            <path id="Path_977" d="M124.057 326.681a.419.419 0 0 1-.291-.116l-17.674-16.717a.425.425 0 0 1 .584-.617l17.673 16.717a.424.424 0 0 1-.292.733z" class="cls-15" data-name="Path 977" transform="translate(-51.351 -133.214)"/>
            <path id="Path_978" d="M140.651 316.136h-.044l-1.982-.2a.42.42 0 0 1-.28-.146l-4.188-4.9a.425.425 0 0 1 .645-.553l4.078 4.771 1.814.186a.424.424 0 0 1-.042.847z" class="cls-15" data-name="Path 978" transform="translate(-55.589 -133.375)"/>
            <path id="Path_979" d="M690.006 339.7a.425.425 0 0 1-.131-.829l15.923-5.18a.425.425 0 1 1 .262.808l-15.923 5.179a.41.41 0 0 1-.131.022z" class="cls-2" data-name="Path 979" transform="translate(-139.385 -136.917)"/>
            <path id="Path_980" d="M455.18 495.008v4.192s5.03 1.4 7.544-1.257v-2.934z" class="cls-12" data-name="Path 980" transform="translate(-104.028 -161.254)"/>
            <path id="Path_981" d="M455.18 499.72s5.868.7 7.544-1.257l9.779 4.75v1.815H455.18z" class="cls-5" data-name="Path 981" transform="translate(-104.028 -161.775)"/>
            <path id="Path_982" d="M418.171 495.008v4.192s-5.029 1.4-7.544-1.257v-2.934z" class="cls-12" data-name="Path 982" transform="translate(-97.307 -161.254)"/>
            <path id="Path_983" d="M416.434 499.72s-5.867.7-7.544-1.257l-9.78 4.75v1.815h17.324z" class="cls-5" data-name="Path 983" transform="translate(-95.57 -161.775)"/>
            <path id="Path_984" d="M423.609 258.78v5.52h14.5v-5.52l2.057-1.839a5.541 5.541 0 0 0 3.138-4.328c.324-3.139-.757-4.22-2.489-3.571h-19.73s-1.767-1.01-2.344.649-.144 6.765 3.391 6.827z" class="cls-16" data-name="Path 984" transform="translate(-98.499 -124.106)"/>
            <path id="Path_985" d="M430.944 256.974c-.114.006-8.873-2.452-9.775-10.749s0-10.929 0-10.929 1.623-6.133 10.784-6.421 10.894 9.595 9.2 17.17c-.001 0-.253 10.455-10.209 10.929z" class="cls-5" data-name="Path 985" transform="translate(-98.837 -121.109)"/>
            <path id="Path_986" d="M417.12 271.3s2.381-6.709 14.068-7c0 0 6.535-.721 11.96 6.348 0-.001-10.662-7.431-26.028.652z" class="cls-2" data-name="Path 986" transform="translate(-98.287 -126.45)"/>
            <path id="Path_987" d="M413.459 272.41l-14.644 6.781a39.356 39.356 0 0 0-5.916 18.467c-.282 6.77.662 16.852 1.354 23.053a20.6 20.6 0 0 0 3.831 9.854l4.988 6.842.793 50.281s15.583 11.11 50.209 0v-52.517l4.926-8.417a22.411 22.411 0 0 0 3.066-11.585c-.118-10.06-1.214-29.149-7.558-36.844l-14.138-6.493s-13.57-9.378-26.911.578z" class="cls-2" data-name="Path 987" transform="translate(-94.626 -126.986)"/>
            <path id="Path_988" d="M418.446 352.287a.426.426 0 0 1-.263-.092l-13.635-10.8a.424.424 0 1 1 .527-.665l13.35 10.57 5.7-5.282-18.9-37.443a.431.431 0 0 1-.046-.192v-15.866a.425.425 0 0 1 .849 0v15.77l19 37.638a.425.425 0 0 1-.09.5l-6.2 5.747a.425.425 0 0 1-.292.115z" class="cls-15" data-name="Path 988" transform="translate(-96.366 -130.646)"/>
            <path id="Path_989" d="M443.29 352.86a.422.422 0 0 1-.31-.134l-5.941-6.344a.423.423 0 0 1-.069-.481l21.158-41.74-.716-14.171a.424.424 0 0 1 .4-.446.4.4 0 0 1 .446.4l.721 14.284a.419.419 0 0 1-.044.213l-21.073 41.579 5.469 5.84 17.126-13.744a.424.424 0 0 1 .531.661l-17.432 13.991a.419.419 0 0 1-.266.092z" class="cls-15" data-name="Path 989" transform="translate(-101.274 -130.261)"/>
            <path id="Path_990" d="M408.424 410.41l.965 72.656h10.532l6.06-68.966z" class="cls-5" data-name="Path 990" transform="translate(-96.975 -148.493)"/>
            <path id="Path_991" d="M440.542 413.719c-.045 0 11.2 69.346 11.2 69.346l9.667-1.01-4.17-71.645z" class="cls-5" data-name="Path 991" transform="translate(-101.82 -148.493)"/>
            <path id="Path_992" d="M428.152 358.489l1.9.8 4.249-.129 2.222 3.347 1.752 2.181-6.794 5.149-.858-.679s-1.466.572-1.787-.751c0 0-2.217.572-2-1.216 0 0-2.254.107-1.4-1.716l.394-.823-1.681-2.216z" class="cls-16" data-name="Path 992" transform="translate(-99.347 -140.661)"/>
            <path id="Path_993" d="M436.487 365.227a.252.252 0 0 1-.127-.033l-2.817-1.6a.914.914 0 0 1 .812-1.634l4.029 1.727a.255.255 0 0 1-.2.468l-4.029-1.728a.4.4 0 0 0-.359.724l2.817 1.6a.254.254 0 0 1-.126.476z" class="cls-17" data-name="Path 993" transform="translate(-100.694 -141.174)"/>
            <path id="Path_994" d="M435.419 366.958a.251.251 0 0 1-.132-.036l-2.3-1.389a1.107 1.107 0 0 1 1.119-1.91l1.437.816a.255.255 0 0 1-.252.443l-1.437-.816a.6.6 0 0 0-.6 1.031l2.3 1.389a.254.254 0 0 1-.132.472z" class="cls-17" data-name="Path 994" transform="translate(-100.6 -141.414)"/>
            <path id="Path_995" d="M434.346 368.578a.259.259 0 0 1-.136-.039l-2.1-1.321a.931.931 0 1 1 1-1.57l1.374.884a.254.254 0 1 1-.275.428l-1.374-.884a.423.423 0 0 0-.567.1.422.422 0 0 0 .115.608l2.1 1.32a.255.255 0 0 1-.136.47z" class="cls-17" data-name="Path 995" transform="translate(-100.482 -141.719)"/>
            <path id="Path_996" d="M427.261 368.041a.278.278 0 0 1-.094-.017.257.257 0 0 1-.144-.331l.592-1.5a.647.647 0 0 0-1.054-.7l-.3.3a.255.255 0 1 1-.355-.365l.3-.295a1.155 1.155 0 0 1 1.883 1.25l-.591 1.5a.256.256 0 0 1-.237.158z" class="cls-17" data-name="Path 996" transform="translate(-99.6 -141.613)"/>
            <path id="Path_997" d="M429.173 369.045a.234.234 0 0 1-.089-.017.254.254 0 0 1-.149-.327l.8-2.118a.578.578 0 0 0-1.005-.549l-.363.487a.254.254 0 1 1-.408-.3l.363-.487a1.087 1.087 0 0 1 1.889 1.033l-.8 2.118a.254.254 0 0 1-.238.16z" class="cls-17" data-name="Path 997" transform="translate(-99.914 -141.688)"/>
            <path id="Path_998" d="M431.36 370.124h-.014a.256.256 0 0 1-.24-.269l.107-1.953a.376.376 0 0 0-.1-.282.394.394 0 0 0-.62.1l-.472 1.006a.255.255 0 1 1-.461-.217l.472-1.005a.889.889 0 0 1 1.45-.234.883.883 0 0 1 .242.66l-.107 1.953a.254.254 0 0 1-.257.241z" class="cls-17" data-name="Path 998" transform="translate(-100.159 -141.944)"/>
            <path id="Path_999" d="M442.274 362.387l-1.978 2.025-4.2-5.421 2.1-1.627z" class="cls-4" data-name="Path 999" transform="translate(-101.15 -140.492)"/>
            <path id="Path_1000" d="M422.208 360.577l1.647 1.868 4.326-4.264-1.52-1.73z" class="cls-4" data-name="Path 1000" transform="translate(-99.054 -140.354)"/>
            <path id="Path_1001" d="M185.063 111.544l.635 5.08a.7.7 0 0 0 1.386-.1l-.01-4.768.888.04-.9 5.625a.731.731 0 0 0 1.416.35l2.548-6.018.262.262-2.9 6.328a.8.8 0 0 0 1.354.822l4.981-6.4.244.027-3.81 4.887a1.4 1.4 0 0 0 1.655-.433l3.212-4.155a1.206 1.206 0 0 0-.24-1.711c-1.718-1.271-5.577-3.471-10.085-1.821 0 0-7.033-.485-9.121 2.349l7.085.075a1.531 1.531 0 0 1 1.4-.439z" class="cls-16" data-name="Path 1001" transform="translate(-62.003 -103.022)"/>
            <path id="Path_1002" d="M151.107 194a.97.97 0 0 0-.985.658c-.365 1.937-1.771 7.269.012 9.163 1.714 1.821 5.432 3.724 6.983 4.472a3.3 3.3 0 0 0 1.44.329h.082a3.31 3.31 0 0 0 3.05-2.024l1.753-4.15s.274-3.7-2.606-4.116l-8.78 3.978-.2-7.581c-.043-.447-.749-.729-.749-.729z" class="cls-16" data-name="Path 1002" transform="translate(-57.881 -115.849)"/>
            <path id="Path_1003" d="M158.122 203.027a.254.254 0 0 1-.134-.47l4.67-2.9a.254.254 0 1 1 .268.432l-4.67 2.9a.248.248 0 0 1-.134.038z" class="cls-17" data-name="Path 1003" transform="translate(-59.18 -116.697)"/>
            <path id="Path_1004" d="M159.872 203.9a.254.254 0 0 1-.15-.46l3.679-2.688a.255.255 0 1 1 .3.411l-3.679 2.689a.252.252 0 0 1-.15.048z" class="cls-17" data-name="Path 1004" transform="translate(-59.444 -116.86)"/>
            <path id="Path_1005" d="M160.872 205.407a.251.251 0 0 1-.2-.1.254.254 0 0 1 .046-.357l3.255-2.508a.255.255 0 0 1 .311.4l-3.255 2.508a.253.253 0 0 1-.157.057z" class="cls-17" data-name="Path 1005" transform="translate(-59.595 -117.115)"/>
            <path id="Path_1006" d="M760.167 485.328l2.2 1.778a1.4 1.4 0 0 1 .484 1.444c-.763 2.982-3.555 12.595-8.211 14.094a5.465 5.465 0 0 1-1.242.3 1.036 1.036 0 0 1-1.031-1.539c1.066-1.864 2.97-5.36 3.3-7.095 0 0 3.38.357 4.238-4.071z" class="cls-4" data-name="Path 1006" transform="translate(-148.836 -159.794)"/>
            <path id="Path_1007" d="M754.063 476.3l-2.894-3.463-13.769-27.888-8.61-19.448-17.022 1.827 37.519 53.843.281 4.118c5.525.187 4.495-8.989 4.495-8.989z" class="cls-16" data-name="Path 1007" transform="translate(-142.733 -150.77)"/>
            <path id="Path_1008" d="M686.577 304.71l2.932 19.886h5.6l-4.708-21.16z" class="cls-4" data-name="Path 1008" transform="translate(-138.932 -132.357)"/>
            <path id="Path_1009" d="M689.884 328.354s-1.6 57.585-.326 85.154c0 0 30.283 3.314 40.991-4.844L720.1 356.4s-13.027 2.723-17.712-8.459-5.095-19.585-5.095-19.585z" class="cls-5" data-name="Path 1009" transform="translate(-139.308 -136.116)"/>
            <path id="Path_1010" d="M699.432 274.4s-6.263 2.29-11.291-.49c0 0 4.28-21.836 12.289-27.048.001 0 4.544 19.445-.998 27.538z" class="cls-9" data-name="Path 1010" transform="translate(-139.168 -123.823)"/>
            <path id="Path_1011" d="M689.515 280.691l-19.262-20.251a6.368 6.368 0 0 1-1.183-1.754l-9.415-20.778 5.61-4.929 12.068 21.416 21.647 20.8z" class="cls-2" data-name="Path 1011" transform="translate(-134.871 -121.729)"/>
            <path id="Path_1012" d="M701.648 246.862s-3.449 4.9-3 8.1l-2 1.868a1.145 1.145 0 0 0-.087 1.633 1.776 1.776 0 0 0 .673.393s-1.945 7.376.651 8.319 3.349.621 3.349.621.471 4.015-.749 6.005a18.648 18.648 0 0 0-1.1 1.906c-1.13 2.451-3.37 7.63-3.157 9.749 0 0 12.8-9.866 16.159-9.935 0 0-2.633-5.106-2.648-9.382l-.016-4.275s3.509 1.3 3.509-1.849a2.2 2.2 0 0 0-2.908-2.325s-8.03-4.2-8.676-10.828z" class="cls-16" data-name="Path 1012" transform="translate(-140.385 -123.823)"/>
            <path id="Path_1013" d="M702.614 246.258s6.291-6.691 14.192-1.3a14.937 14.937 0 0 1 6.371 11.442 25.875 25.875 0 0 1-.4 6.295l1.829 9.967a3.54 3.54 0 0 1-3.011 4.151 11.4 11.4 0 0 1-8.242-1.9s-3.773-7.226-2.665-13.656c0 0 2.713 1.069 3.215-1.691 0 0 .583-2.6-2.614-2.484-.003.007-8.003-2.617-8.675-10.824z" class="cls-9" data-name="Path 1013" transform="translate(-141.351 -123.22)"/>
            <path id="Path_1014" d="M706.084 279.8s-10.558 1.021-16.181 6.375l-14.8 4.589-16.827-15.552-3.825 3.06s6.534 16.434 15.065 22.256a7.943 7.943 0 0 0 6.084 1.188l6.131-1.262 3.825-1.275s.782 7.6 1.975 18.013l.373 3.224q.205 1.769.425 3.614c2.42 20.435 5.919 46.751 8.356 51.346 7.484 14.117 28.183 11.785 28.183 11.785s-15.816-67.724-14.326-83.139c1.442-14.937-1.521-20.653-4.458-24.222z" class="cls-2" data-name="Path 1014" transform="translate(-134.086 -128.1)"/>
            <path id="Path_1015" d="M702.027 499.437v3.492a1.243 1.243 0 0 1-1.086 1.237c-2.994.38-11.427 1.358-15.694.882a.944.944 0 0 1-.409-1.729 40.955 40.955 0 0 1 6.707-3.6s2.277 2.924 4.979 2.145a28.163 28.163 0 0 0 5.503-2.427z" class="cls-4" data-name="Path 1015" transform="translate(-138.605 -161.922)"/>
            <path id="Path_1016" d="M656.358 272.69l-1.53-4.774v-5.088h-1.275l-.425 3.829-6.968-8.157-.934.934 4.334 6.161h-.68l-5.864-5.113-.679.736 5.694 5.609-5.269-4.571-.425 1.172 5.014 4.489h-.6l-4.419-3.724-.6.935 6.544 6.459 4.788 3.733z" class="cls-16" data-name="Path 1016" transform="translate(-132.169 -125.579)"/>
            <path id="Path_1017" d="M664.142 231.572l-1.781-2.046v-9.859h-1.614l-.85 4.249-2.634-3.654-.51 10.708 3.186 4.3z" class="cls-16" data-name="Path 1017" transform="translate(-134.434 -119.721)"/>
            <path id="Path_1018" d="M659.567 230.289a.425.425 0 0 1-.417-.348c-.353-1.948.649-5.324.692-5.467a.424.424 0 1 1 .813.244c-.009.033-.986 3.324-.669 5.071a.425.425 0 0 1-.342.494.45.45 0 0 1-.077.006z" class="cls-17" data-name="Path 1018" transform="translate(-134.784 -120.401)"/>
            <path id="Path_1019" d="M691.668 428.822l1.534 21.589 3.182 36.69-3.744 1.966a4.638 4.638 0 0 0 3.369 2.246c2.621.561 7.113-2.527 7.113-2.527l.149-4.05 2.4-55.409z" class="cls-16" data-name="Path 1019" transform="translate(-139.7 -151.271)"/>
            <path id="Path_1020" d="M702.176 257.008a.588.588 0 1 1-.339-.849.654.654 0 0 1 .339.849z" class="cls-18" data-name="Path 1020" transform="translate(-141.114 -125.223)"/>
            <path id="Path_1021" d="M701.155 253.962a1.375 1.375 0 0 1 .8-.287 1.814 1.814 0 0 1 .835.155 1.575 1.575 0 0 1 .665.574 1.134 1.134 0 0 1 .181.846c-.273-.149-.453-.283-.651-.38s-.359-.194-.552-.27a12.941 12.941 0 0 1-1.278-.638z" class="cls-9" data-name="Path 1021" transform="translate(-141.131 -124.85)"/>
            <path id="Path_1022" d="M700.315 250.228s2.811-.214 3.289-1.54l-.862-2.35a7 7 0 0 0-2.427 3.89z" class="cls-9" data-name="Path 1022" transform="translate(-141.005 -123.744)"/>
            <path id="Path_1023" d="M697.855 265.676a2.371 2.371 0 0 1-.9-.183.255.255 0 0 1 .2-.469c.051.022 1.27.521 1.742-.508a.254.254 0 1 1 .463.211 1.552 1.552 0 0 1-1.505.949z" class="cls-18" data-name="Path 1023" transform="translate(-140.474 -126.464)"/>
            <path id="Path_1024" d="M702.632 256.7a.176.176 0 0 1-.088-.025l-1.39-.849a.17.17 0 0 1 .177-.29l1.39.849a.17.17 0 0 1-.089.315z" class="cls-18" data-name="Path 1024" transform="translate(-141.119 -125.129)"/>
        </g>
    </g>
</svg>
